<?xml version="1.0" encoding="utf-8"?>
<!-- Generator: Adobe Illustrator 16.0.0, SVG Export Plug-In . SVG Version: 6.00 Build 0)  -->
<!DOCTYPE svg PUBLIC "-//W3C//DTD SVG 1.1//EN" "http://www.w3.org/Graphics/SVG/1.1/DTD/svg11.dtd">
<svg version="1.1" id="Layer_1" xmlns="http://www.w3.org/2000/svg" xmlns:xlink="http://www.w3.org/1999/xlink" x="0px" y="0px"
	 width="172.005px" height="37.937px" viewBox="0 0 172.005 37.937" enable-background="new 0 0 172.005 37.937"
	 xml:space="preserve">
<g>
	<path fill="#FFFFFF" d="M13.754,24.519c-0.281,0.247-0.63,0.532-1.048,0.854c-0.417,0.322-0.906,0.676-1.469,1.063
		c-0.507,0.334-0.955,0.621-1.344,0.862c-0.389,0.242-0.715,0.422-0.978,0.54c-0.384,0.204-0.792,0.352-1.224,0.443
		c-0.431,0.091-0.871,0.137-1.321,0.137c-0.141,0-0.298-0.024-0.472-0.072c-0.173-0.049-0.358-0.105-0.556-0.17
		c-0.243-0.074-0.449-0.139-0.618-0.193c-0.169-0.053-0.31-0.086-0.422-0.096l-0.169-0.193l-0.408-0.064
		c-0.178-0.012-0.392-0.113-0.64-0.307s-0.519-0.462-0.809-0.806c-0.281-0.322-0.509-0.628-0.682-0.919
		c-0.174-0.289-0.298-0.553-0.373-0.789l-0.38-1.386c-0.131-0.473-0.229-0.854-0.295-1.144c-0.066-0.291-0.094-0.479-0.085-0.564
		l0.155-0.725c-0.075-0.248-0.134-0.451-0.176-0.613c-0.043-0.16-0.063-0.284-0.063-0.37s0.023-0.349,0.07-0.79
		c0.047-0.44,0.112-1.053,0.196-1.837c0.066-0.15,0.137-0.333,0.211-0.548c0.075-0.215,0.146-0.457,0.211-0.725l-0.042-0.354
		c0-0.086,0.017-0.186,0.05-0.298c0.032-0.113,0.077-0.239,0.133-0.379c0.216-0.526,0.432-1.058,0.647-1.595
		s0.431-1.058,0.646-1.563c0.188-0.387,0.43-0.784,0.725-1.192s0.635-0.833,1.02-1.273c0.085-0.107,0.188-0.247,0.31-0.419
		s0.268-0.36,0.436-0.564c0.16-0.107,0.354-0.271,0.584-0.491S6.08,7.476,6.399,7.132C6.492,7.089,6.605,7.03,6.736,6.955
		s0.291-0.167,0.479-0.274C7.262,6.649,7.32,6.595,7.391,6.52s0.152-0.156,0.246-0.242C7.739,6.171,8.114,6.01,8.762,5.795
		C9.408,5.58,9.83,5.473,10.027,5.473c0.431,0,0.797,0.035,1.097,0.104c0.3,0.07,0.539,0.18,0.718,0.331l0.45,0.097
		c0.374,0.097,0.651,0.424,0.829,0.983c0.179,0.559,0.268,1.364,0.268,2.417c0,0.494-0.005,0.889-0.015,1.185
		c-0.009,0.295-0.023,0.497-0.041,0.604c-0.057,0.322-0.12,0.728-0.19,1.216c-0.07,0.489-0.161,1.056-0.273,1.7
		c-0.01,0.172-0.072,0.454-0.189,0.846c-0.117,0.393-0.269,0.878-0.456,1.458c-0.196,0.634-0.365,1.115-0.505,1.442
		c-0.141,0.328-0.258,0.508-0.351,0.54c-0.375,0.107-0.777,0.226-1.207,0.354c-0.206,0-0.352-0.019-0.437-0.057
		c-0.084-0.037-0.126-0.099-0.126-0.185c0-0.075,0.016-0.193,0.049-0.354s0.05-0.274,0.05-0.338
		c-0.028-0.408-0.057-0.822-0.085-1.241c0-0.15,0.037-0.446,0.112-0.886s0.188-1.004,0.338-1.692
		c0.159-0.752,0.299-1.345,0.42-1.781c0.121-0.435,0.22-0.706,0.294-0.813c0.271-0.29,0.469-0.566,0.595-0.83
		c0.126-0.263,0.189-0.502,0.189-0.717c0-0.301-0.063-0.564-0.19-0.79c-0.126-0.226-0.316-0.397-0.569-0.516
		c-0.244-0.064-0.49-0.126-0.738-0.185S9.568,8.233,9.324,8.147c-0.197,0.086-0.373,0.15-0.527,0.193S8.509,8.421,8.396,8.454
		c-0.628,0.118-1.23,0.451-1.807,0.999C6.012,10,5.461,10.758,4.937,11.725c-0.432,0.838-0.778,1.679-1.041,2.521
		c-0.263,0.844-0.44,1.689-0.534,2.538c-0.038,0.258-0.085,0.578-0.141,0.959c-0.057,0.381-0.136,0.83-0.239,1.345
		c0.084,0.322,0.159,0.618,0.225,0.886l-0.141,1.467c0,0.053,0.043,0.164,0.127,0.33s0.216,0.41,0.394,0.732
		c0.104,0.184,0.197,0.398,0.281,0.645c0.085,0.248,0.15,0.527,0.197,0.838c0.019,0.076,0.054,0.156,0.105,0.242
		s0.11,0.156,0.176,0.209c0.141,0.141,0.276,0.264,0.408,0.371c0.402,0.494,0.832,0.867,1.286,1.12
		c0.455,0.253,0.94,0.378,1.456,0.378c0.047,0,0.223-0.026,0.527-0.08s0.725-0.14,1.259-0.258c0.094-0.075,0.218-0.15,0.372-0.226
		c0.155-0.075,0.34-0.155,0.556-0.241c0.188-0.215,0.375-0.368,0.563-0.46c0.188-0.091,0.361-0.137,0.521-0.137
		c0.047-0.075,0.105-0.167,0.176-0.274s0.162-0.225,0.274-0.354c0.281-0.129,0.539-0.299,0.773-0.508
		c0.234-0.21,0.459-0.454,0.675-0.733C13.566,23.971,13.754,24.465,13.754,24.519z"/>
	<path fill="#FFFFFF" d="M13.178,23.036c0.084-0.107,0.168-0.239,0.253-0.395c0.084-0.155,0.196-0.325,0.337-0.508l0.929-0.935
		c0.037-0.032,0.059-0.075,0.063-0.129c0.004-0.054,0.007-0.129,0.007-0.226c-0.01-0.14-0.023-0.253-0.042-0.339
		c0-0.246,0.042-0.66,0.126-1.24c0.085-0.58,0.159-0.929,0.226-1.047l-0.085-0.306c0.122-0.72,0.293-1.507,0.514-2.36
		c0.22-0.854,0.471-1.781,0.752-2.78c0.094-0.172,0.192-0.389,0.296-0.653c0.103-0.263,0.22-0.561,0.352-0.894
		c0.159-0.559,0.37-1.144,0.633-1.756s0.558-1.241,0.886-1.885c0.44-0.849,0.832-1.488,1.175-1.917
		c0.342-0.43,0.648-0.645,0.921-0.645c0.544,0,0.916,0.121,1.118,0.362c0.201,0.242,0.302,0.696,0.302,1.362
		c0,0.172-0.025,0.438-0.077,0.797c-0.052,0.36-0.077,0.631-0.077,0.814s-0.052,0.44-0.154,0.773
		c-0.104,0.333-0.155,0.639-0.155,0.918c-0.009,0.086-0.033,0.172-0.07,0.258l0.015,0.226c-0.038,0.15-0.094,0.333-0.169,0.548
		s-0.174,0.473-0.296,0.773c-0.065,0.269-0.149,0.58-0.253,0.935s-0.225,0.741-0.365,1.16c-0.057,0.107-0.129,0.239-0.218,0.395
		c-0.09,0.156-0.186,0.331-0.289,0.524c-0.028,0.14-0.075,0.301-0.141,0.483s-0.154,0.397-0.267,0.645
		c-0.057,0.129-0.132,0.269-0.226,0.419s-0.206,0.344-0.337,0.58c-0.057,0.107-0.118,0.242-0.184,0.403s-0.141,0.344-0.225,0.548
		c-0.104,0.183-0.239,0.408-0.408,0.677c-0.168,0.269-0.36,0.585-0.576,0.951c-0.291,0.59-0.591,1.154-0.9,1.691
		c0,1.042,0.181,1.829,0.542,2.36c0.36,0.532,0.902,0.798,1.624,0.798c0.047,0,0.188-0.037,0.422-0.113
		c0.234-0.074,0.558-0.193,0.971-0.354c0.121-0.086,0.267-0.207,0.436-0.363c0.169-0.155,0.361-0.341,0.577-0.556l0.548,1.482
		c-0.244,0.247-0.487,0.499-0.731,0.757c-0.243,0.258-0.492,0.511-0.745,0.758c-0.291,0.279-0.586,0.491-0.886,0.637
		c-0.301,0.145-0.596,0.217-0.886,0.217c-0.15,0-0.38-0.018-0.689-0.056s-0.544-0.057-0.703-0.057c-0.525,0-0.959-0.241-1.301-0.726
		c-0.343-0.482-0.584-1.208-0.725-2.175c-0.019-0.097-0.045-0.183-0.077-0.258c-0.033-0.075-0.092-0.161-0.176-0.258
		c-0.122,0.14-0.265,0.306-0.429,0.499s-0.364,0.414-0.598,0.661L13.178,23.036z M19.886,10.387l-0.099-0.064
		c-0.525,0.58-0.921,1.128-1.188,1.644c-0.267,0.516-0.4,1.015-0.4,1.499c0,0.075-0.031,0.201-0.092,0.379
		c-0.061,0.177-0.152,0.405-0.274,0.685c-0.149,0.333-0.305,0.698-0.464,1.096c-0.178,0.602-0.314,1.09-0.408,1.466
		s-0.141,0.645-0.141,0.806l0.085,0.129c0.084-0.011,0.188-0.107,0.31-0.29c0.121-0.183,0.262-0.451,0.422-0.806
		c0.074-0.193,0.183-0.419,0.323-0.677s0.3-0.564,0.479-0.918c0.149-0.236,0.389-0.843,0.717-1.821s0.506-1.601,0.534-1.869
		c0.01-0.215,0.035-0.427,0.077-0.636C19.809,10.798,19.848,10.591,19.886,10.387z"/>
	<path fill="#FFFFFF" d="M21.11,23.036c0.065-0.075,0.133-0.175,0.203-0.298s0.153-0.261,0.246-0.411l1.083-0.854
		c0.132-0.182,0.333-0.416,0.605-0.7c0.271-0.284,0.609-0.632,1.012-1.04c0.047-0.117,0.125-0.254,0.232-0.41
		c0.107-0.156,0.236-0.309,0.387-0.459c0.131-0.14,0.263-0.271,0.394-0.395c0.132-0.123,0.254-0.244,0.366-0.362
		c0.141-0.161,0.274-0.322,0.4-0.483c0.127-0.161,0.256-0.317,0.387-0.467c0.15-0.15,0.305-0.269,0.464-0.354
		c0.16-0.086,0.333-0.129,0.521-0.129c0.206,0,0.363,0.03,0.472,0.088c0.107,0.06,0.166,0.143,0.176,0.25
		c-0.094,0.247-0.192,0.494-0.296,0.741l0.085,0.145c0.412-0.183,0.735-0.317,0.97-0.403s0.385-0.129,0.45-0.129
		c0.685,0,1.198,0.239,1.54,0.717c0.342,0.479,0.514,1.2,0.514,2.167c0,0.184-0.02,0.398-0.057,0.645
		c-0.037,0.248-0.099,0.516-0.183,0.807c-0.094,0.322-0.194,0.59-0.303,0.805c-0.107,0.215-0.208,0.371-0.302,0.468
		c0.037,0.14,0.079,0.239,0.126,0.298c0.047,0.06,0.108,0.089,0.184,0.089c0.074,0,0.151-0.026,0.231-0.081
		c0.08-0.053,0.176-0.134,0.288-0.241c0.094,0.236,0.186,0.481,0.274,0.733s0.181,0.502,0.274,0.749
		c-0.169,0.172-0.333,0.339-0.492,0.499c-0.159,0.162-0.328,0.317-0.506,0.468c-0.216,0.204-0.42,0.353-0.612,0.443
		s-0.382,0.137-0.569,0.137c-0.216,0-0.394-0.06-0.534-0.177c-0.141-0.119-0.254-0.285-0.338-0.5
		c-0.234,0.354-0.519,0.68-0.851,0.975c-0.333,0.296-0.701,0.54-1.104,0.733c-0.234,0.129-0.447,0.229-0.64,0.298
		c-0.192,0.07-0.368,0.105-0.527,0.105c-0.047,0-0.139,0.021-0.274,0.064s-0.246,0.064-0.33,0.064c-0.535,0-1.018-0.258-1.449-0.773
		c-0.431-0.516-0.646-1.091-0.646-1.725c0-0.258,0.052-0.599,0.154-1.023c0.104-0.424,0.155-0.674,0.155-0.749
		s-0.021-0.137-0.063-0.186c-0.042-0.048-0.101-0.072-0.176-0.072c-0.047,0-0.159,0.081-0.338,0.241
		c-0.178,0.162-0.431,0.393-0.759,0.693c-0.028,0.043-0.062,0.107-0.099,0.193c-0.038,0.086-0.099,0.183-0.183,0.29
		c-0.075-0.247-0.16-0.497-0.254-0.749C21.326,23.518,21.223,23.272,21.11,23.036z M27.875,20.088
		c-0.048,0.01-0.115,0.066-0.204,0.169c-0.09,0.103-0.176,0.228-0.261,0.378c-0.131,0.248-0.281,0.516-0.45,0.807
		c-0.103,0.129-0.213,0.229-0.33,0.298s-0.251,0.12-0.4,0.153c-0.095,0.01-0.192,0.115-0.296,0.313
		c-0.104,0.199-0.206,0.486-0.31,0.862c-0.103,0.333-0.178,0.617-0.225,0.854s-0.07,0.436-0.07,0.597
		c0,0.301,0.065,0.526,0.197,0.677c0.131,0.15,0.332,0.226,0.604,0.226c0.431,0,0.827-0.137,1.188-0.411
		c0.36-0.273,0.7-0.685,1.02-1.232c0.149-0.204,0.29-0.397,0.422-0.58c0.075-0.064,0.136-0.169,0.183-0.314
		c0.047-0.145,0.094-0.324,0.141-0.539l0.253-0.919c-0.084-0.322-0.164-0.577-0.239-0.766c-0.075-0.188-0.149-0.304-0.225-0.347
		c-0.047-0.031-0.15-0.066-0.31-0.104C28.404,20.171,28.175,20.131,27.875,20.088z"/>
	<path fill="#FFFFFF" d="M31.278,23.036l0.084-0.112c0.037-0.15,0.119-0.313,0.246-0.484s0.307-0.344,0.541-0.516
		c0.31-0.225,0.551-0.408,0.725-0.547c0.174-0.141,0.279-0.242,0.316-0.307c0.085-0.118,0.141-0.209,0.169-0.273
		c0.103-0.086,0.229-0.205,0.38-0.355c0.149-0.15,0.318-0.332,0.506-0.547c0.065-0.055,0.136-0.141,0.211-0.258
		c0.075-0.119,0.15-0.253,0.226-0.403c0.121-0.097,0.26-0.22,0.414-0.371c0.155-0.15,0.336-0.344,0.542-0.58
		c0.234-0.29,0.499-0.609,0.795-0.958c0.295-0.349,0.625-0.712,0.991-1.088c0.122-0.064,0.236-0.115,0.345-0.153
		c0.107-0.037,0.213-0.056,0.316-0.056c0.422,0,0.738,0.116,0.949,0.346c0.211,0.231,0.316,0.562,0.316,0.991
		c0,0.107-0.017,0.285-0.05,0.532c-0.032,0.247-0.067,0.559-0.105,0.935c-0.131,1.085-0.225,1.746-0.281,1.982
		c-0.056,0.236-0.253,0.978-0.59,2.224c-0.075,0.204-0.153,0.456-0.232,0.757c-0.08,0.301-0.176,0.666-0.288,1.096
		c0.019,0.043,0.065,0.086,0.141,0.129c0.065,0,0.183-0.072,0.352-0.217c0.169-0.146,0.394-0.363,0.675-0.652
		c0.328-0.344,0.586-0.607,0.773-0.79s0.305-0.29,0.352-0.322c0.112,0.29,0.216,0.556,0.31,0.798
		c0.094,0.241,0.173,0.47,0.239,0.685c-0.122,0.086-0.232,0.183-0.331,0.29s-0.189,0.226-0.274,0.354
		c-0.196,0.15-0.424,0.322-0.682,0.516s-0.541,0.403-0.851,0.628c-0.141,0.162-0.331,0.357-0.57,0.589
		c-0.238,0.231-0.508,0.491-0.809,0.781l-0.267,0.064c-0.132,0.204-0.256,0.36-0.373,0.468s-0.223,0.182-0.316,0.225
		c-0.15,0.064-0.3,0.127-0.45,0.186c-0.149,0.059-0.31,0.121-0.478,0.186c-0.104-0.032-0.179-0.102-0.226-0.209
		s-0.065-0.248-0.056-0.42c-0.141-0.289-0.254-0.623-0.338-0.998c-0.084-0.377-0.127-0.795-0.127-1.258
		c0-0.086,0.005-0.177,0.015-0.273c0.009-0.097,0.019-0.183,0.028-0.258c-0.066-0.279-0.099-0.445-0.099-0.5
		c0-0.322,0.107-0.588,0.323-0.797c0.216-0.21,0.459-0.314,0.731-0.314c0.141,0,0.241,0.084,0.303,0.25
		c0.061,0.166,0.124,0.25,0.189,0.25s0.134-0.148,0.204-0.443s0.138-0.729,0.204-1.297c0.065-0.494,0.107-0.924,0.126-1.289
		s0.028-0.645,0.028-0.838c0-0.141-0.026-0.244-0.077-0.314c-0.052-0.07-0.139-0.105-0.261-0.105s-0.516,0.322-1.181,0.967
		c-0.666,0.645-1.595,1.606-2.785,2.885c-0.037,0.075-0.091,0.166-0.161,0.273s-0.153,0.242-0.246,0.403
		c-0.038-0.161-0.104-0.36-0.197-0.597S31.428,23.391,31.278,23.036z"/>
	<path fill="#FFFFFF" d="M40.082,23.036c0.112-0.226,0.258-0.454,0.436-0.685s0.403-0.471,0.675-0.717
		c0.028-0.215,0.057-0.428,0.085-0.637c0.027-0.21,0.047-0.422,0.056-0.637c0.028-0.15,0.073-0.328,0.134-0.531
		c0.061-0.205,0.129-0.425,0.204-0.661c0.084-0.236,0.199-0.532,0.345-0.886c0.145-0.354,0.335-0.752,0.569-1.192
		c0.197-0.247,0.403-0.518,0.619-0.814c0.215-0.295,0.431-0.593,0.646-0.894c0.104-0.097,0.216-0.188,0.338-0.274
		c0.121-0.086,0.243-0.183,0.365-0.29c0.112-0.043,0.239-0.081,0.38-0.113s0.295-0.048,0.464-0.048c0.234,0,0.424,0.027,0.569,0.081
		s0.266,0.145,0.359,0.274c0.065,0.086,0.129,0.215,0.189,0.387s0.119,0.381,0.176,0.628c0.028,0.215,0.061,0.451,0.099,0.709
		c0-0.064-0.017-0.038-0.05,0.081c-0.032,0.118-0.082,0.306-0.147,0.564l-0.126,0.516c-0.132,0.516-0.427,1.112-0.887,1.789
		c-0.459,0.677-1.078,1.45-1.856,2.32c-0.065,0.075-0.121,0.169-0.168,0.282c-0.048,0.112-0.07,0.233-0.07,0.362
		c0,0.226,0.035,0.425,0.105,0.597s0.171,0.301,0.302,0.387c0.075,0.064,0.194,0.129,0.358,0.193s0.359,0.123,0.584,0.177
		c0.366-0.032,0.698-0.103,0.999-0.21c0.3-0.107,0.566-0.236,0.801-0.387c0.047-0.031,0.122-0.077,0.226-0.137
		c0.103-0.059,0.206-0.137,0.31-0.233c0.121,0.312,0.229,0.591,0.323,0.838s0.169,0.462,0.225,0.645
		c-0.534,0.602-1.02,1.056-1.455,1.361c-0.437,0.307-0.837,0.46-1.202,0.46c-0.15,0.107-0.321,0.185-0.514,0.233
		c-0.192,0.048-0.42,0.072-0.683,0.072c-0.347,0-0.653-0.06-0.921-0.177c-0.267-0.119-0.49-0.291-0.668-0.516
		c-0.094-0.107-0.188-0.267-0.281-0.476c-0.094-0.21-0.192-0.46-0.295-0.749c-0.085-0.236-0.164-0.411-0.239-0.524
		c-0.075-0.112-0.159-0.169-0.253-0.169c-0.075,0-0.16,0.04-0.254,0.121c-0.094,0.08-0.196,0.201-0.309,0.362
		c-0.038-0.161-0.104-0.36-0.197-0.597S40.231,23.391,40.082,23.036z M44.582,17.799c-0.206,0-0.483,0.309-0.83,0.926
		c-0.347,0.618-0.521,1.071-0.521,1.362c0,0.064,0.012,0.109,0.035,0.137s0.073,0.04,0.148,0.04c0.103,0,0.188-0.062,0.253-0.186
		c0.065-0.123,0.126-0.239,0.183-0.347c0.104-0.107,0.204-0.223,0.303-0.346c0.098-0.124,0.194-0.245,0.288-0.363
		c0.112-0.15,0.197-0.301,0.253-0.451c0.057-0.15,0.085-0.301,0.085-0.451c0-0.097-0.017-0.174-0.05-0.234
		C44.696,17.829,44.647,17.799,44.582,17.799z"/>
	<path fill="#FFFFFF" d="M47.155,23.036l0.056-0.129c0.057-0.086,0.129-0.193,0.218-0.322c0.09-0.129,0.195-0.279,0.316-0.451
		c0.666-0.709,1.315-1.555,1.948-2.538c0.633-0.982,1.259-2.113,1.878-3.392c0.074-0.118,0.159-0.274,0.253-0.467
		s0.196-0.435,0.31-0.725c0-0.064-0.015-0.113-0.043-0.145c-0.027-0.032-0.075-0.048-0.141-0.048c-0.056,0-0.147,0.019-0.273,0.057
		c-0.127,0.038-0.224,0.056-0.289,0.056H49.63c-0.075,0-0.199-0.005-0.372-0.016c-0.174-0.011-0.298-0.016-0.373-0.016
		c-0.094-0.054-0.181-0.099-0.261-0.137c-0.079-0.037-0.156-0.078-0.231-0.121c-0.112-0.043-0.199-0.099-0.261-0.169
		c-0.061-0.069-0.091-0.153-0.091-0.25c0-0.688,0.063-1.214,0.189-1.579c0.127-0.365,0.321-0.548,0.585-0.548
		c0.262,0,0.509,0.014,0.738,0.041s0.434,0.062,0.612,0.104c0.141-0.032,0.272-0.064,0.395-0.097c0.253,0,0.469,0.011,0.647,0.032
		c0.178,0.021,0.313,0.048,0.408,0.081c0.121-0.032,0.241-0.062,0.358-0.088s0.246-0.057,0.387-0.089l0.465,0.161
		c0.328-0.043,0.679-0.569,1.05-1.579c0.37-1.01,0.767-1.515,1.189-1.515c0.226,0,0.398,0.081,0.521,0.242s0.183,0.397,0.183,0.709
		c0,0.247-0.063,0.572-0.19,0.975c-0.127,0.402-0.199,0.706-0.218,0.91c0.019,0.043,0.044,0.089,0.076,0.137
		c0.032,0.049,0.08,0.105,0.145,0.169c0.056,0.043,0.095,0.116,0.118,0.217c0.022,0.103,0.034,0.229,0.034,0.379
		c0,0.645-0.025,1.142-0.077,1.49c-0.051,0.35-0.133,0.529-0.245,0.54l-0.953,0.226c-0.019,0.107-0.042,0.239-0.07,0.395
		c-0.028,0.156-0.065,0.336-0.113,0.54c-0.159,0.537-0.338,1.219-0.535,2.046s-0.418,1.804-0.662,2.933
		c-0.151,0.902-0.266,1.633-0.346,2.191s-0.12,0.934-0.12,1.127c0,0.172,0.023,0.301,0.07,0.387s0.117,0.129,0.211,0.129
		c0.057,0,0.261-0.155,0.612-0.467s0.841-0.773,1.47-1.386l0.548,1.482c-0.094,0.118-0.225,0.258-0.394,0.419
		s-0.37,0.333-0.604,0.516c-0.094,0.118-0.211,0.25-0.352,0.395c-0.141,0.146-0.296,0.314-0.465,0.508
		c-0.168,0.215-0.335,0.43-0.499,0.645s-0.33,0.424-0.499,0.629c-0.225,0.279-0.445,0.48-0.661,0.604s-0.417,0.186-0.604,0.186
		c-0.413,0-0.72-0.14-0.921-0.419c-0.202-0.279-0.303-0.704-0.303-1.272c0-0.623,0.019-1.163,0.057-1.62
		c0.037-0.456,0.099-0.824,0.183-1.104c0.038-0.086,0.065-0.161,0.085-0.226c0-0.107,0.014-0.252,0.042-0.436
		c0.028-0.182,0.061-0.396,0.099-0.645c0.057-0.418,0.117-0.838,0.183-1.256c0.104-0.258,0.211-0.532,0.324-0.822
		c0-0.054-0.038-0.102-0.113-0.145l-0.141,0.096c-0.141,0.258-0.323,0.529-0.549,0.814c-0.225,0.285-0.492,0.582-0.802,0.895
		c-0.478,0.525-0.966,1.058-1.463,1.595c-0.028,0.054-0.079,0.134-0.154,0.241s-0.16,0.242-0.253,0.403
		c-0.048-0.129-0.105-0.292-0.176-0.491s-0.144-0.428-0.219-0.686c-0.019-0.064-0.042-0.123-0.07-0.177
		C47.226,23.111,47.192,23.068,47.155,23.036z"/>
	<path fill="#FFFFFF" d="M65.227,30.045c-0.047,0-0.094,0-0.141,0s-0.107,0-0.183,0c-0.225,0-0.415-0.074-0.569-0.225
		c-0.154-0.151-0.26-0.388-0.316-0.711c-0.019-0.096-0.033-0.276-0.042-0.539c-0.01-0.264-0.015-0.615-0.015-1.057
		c0-0.183-0.014-0.467-0.042-0.854s-0.042-0.672-0.042-0.854c0-0.064,0.012-0.178,0.035-0.339s0.04-0.382,0.049-0.661
		c0.019-0.258,0.038-0.57,0.057-0.936c-0.019-0.344-0.052-0.682-0.099-1.016c0.065-0.57,0.141-1.15,0.226-1.741
		c0.009-0.087,0.002-0.242-0.021-0.468s-0.035-0.377-0.035-0.451c0-0.076,0.017-0.186,0.049-0.331
		c0.033-0.146,0.05-0.261,0.05-0.347c0-0.107-0.017-0.193-0.05-0.258c-0.032-0.064-0.082-0.097-0.147-0.097
		c-0.047,0.021-0.101,0.045-0.162,0.072c-0.061,0.027-0.124,0.057-0.189,0.089c-0.057,0.011-0.127,0.032-0.211,0.064
		s-0.188,0.07-0.31,0.113l-0.126-0.098l-0.043-0.161c0.085-0.171,0.171-0.337,0.261-0.499c0.089-0.161,0.171-0.322,0.246-0.483
		c0.084-0.14,0.188-0.263,0.31-0.371c0.121-0.107,0.248-0.215,0.38-0.322c0.103-0.064,0.189-0.236,0.26-0.516
		c0.07-0.279,0.124-0.687,0.162-1.224c0.037-0.612,0.079-1.111,0.126-1.498c0.047-0.387,0.094-0.65,0.141-0.79
		c0.037-0.128,0.085-0.295,0.141-0.499c0-0.064-0.014-0.167-0.042-0.306c-0.028-0.139-0.042-0.236-0.042-0.29
		c0.065-0.494,0.131-0.972,0.196-1.434c0.113-0.666,0.347-1.331,0.703-1.997s0.835-1.364,1.435-2.094
		c0.619-0.698,1.515-1.202,2.687-1.514c0.131,0.032,0.248,0.064,0.352,0.097l0.464-0.193c0.047,0,0.105,0.016,0.176,0.048
		s0.162,0.081,0.274,0.145c0.216-0.075,0.403-0.129,0.563-0.161s0.286-0.048,0.38-0.048c0.581,0,1.015,0.088,1.301,0.266
		c0.286,0.177,0.429,0.448,0.429,0.813c0,0.204-0.012,0.435-0.035,0.693s-0.063,0.537-0.119,0.838
		c-0.065,0.397-0.141,0.696-0.226,0.894c-0.084,0.199-0.178,0.309-0.281,0.331c-0.243-0.129-0.492-0.25-0.745-0.363
		c-0.253-0.112-0.516-0.233-0.787-0.362l-0.507,0.226c-0.159-0.021-0.333-0.048-0.521-0.081c-0.159,0-0.34,0.019-0.541,0.056
		c-0.202,0.038-0.41,0.089-0.626,0.153c-0.591,0.161-0.933,0.384-1.026,0.669s-0.253,0.668-0.479,1.152
		c-0.075,0.107-0.194,0.542-0.358,1.305s-0.382,1.848-0.654,3.255c-0.009,0.064-0.044,0.177-0.105,0.338
		c-0.061,0.161-0.091,0.295-0.091,0.403c0,0.15,0.023,0.266,0.07,0.347c0.047,0.08,0.107,0.126,0.183,0.137
		c0.141-0.075,0.33-0.158,0.569-0.25c0.239-0.091,0.527-0.19,0.865-0.298c0.3-0.043,0.603-0.099,0.907-0.169
		s0.621-0.159,0.949-0.266c0.094,0,0.211,0,0.352,0s0.305,0,0.492,0c0.318-0.064,0.642-0.129,0.971-0.193
		c0.543,0,0.951,0.088,1.223,0.266c0.272,0.177,0.408,0.427,0.408,0.749c0,0.064-0.007,0.229-0.021,0.491
		c-0.014,0.264-0.035,0.615-0.063,1.056c-0.122,0.247-0.249,0.5-0.38,0.757c-0.085,0-0.301-0.041-0.647-0.121
		c-0.347-0.081-0.839-0.202-1.477-0.363c-0.225,0.064-0.469,0.116-0.731,0.153c-0.262,0.038-0.534,0.057-0.815,0.057
		c-0.178,0-0.434,0.032-0.767,0.097s-0.588,0.102-0.767,0.113c-0.121,0.107-0.246,0.185-0.372,0.234
		c-0.127,0.048-0.251,0.072-0.373,0.072c-0.065,0-0.211-0.016-0.436-0.048c-0.122,0-0.239,0.126-0.352,0.378
		c-0.112,0.253-0.211,0.643-0.296,1.168l-0.141,0.693l0.099,0.5l-0.268,1.917c0,0.075,0.008,0.164,0.021,0.266
		c0.014,0.103,0.021,0.207,0.021,0.314c-0.122,0.859-0.209,1.7-0.261,2.521c-0.052,0.822-0.077,1.642-0.077,2.458
		c0,0.172-0.033,0.354-0.099,0.547S65.367,29.852,65.227,30.045z"/>
	<path fill="#FFFFFF" d="M74.705,22.327l1.28-0.967c0.047-0.054,0.103-0.126,0.169-0.218c0.065-0.091,0.141-0.223,0.225-0.395
		c0.065-0.14,0.152-0.258,0.261-0.354c0.107-0.097,0.231-0.183,0.372-0.258c0.075-0.107,0.183-0.241,0.323-0.403
		c0.141-0.16,0.319-0.349,0.535-0.563c0.103-0.064,0.234-0.158,0.394-0.282c0.159-0.123,0.333-0.287,0.521-0.491
		c0.853-0.924,1.601-1.617,2.243-2.079c0.642-0.462,1.184-0.693,1.624-0.693c0.244,0,0.424,0.059,0.541,0.177s0.176,0.285,0.176,0.5
		c0,0.226-0.035,0.424-0.105,0.596s-0.18,0.317-0.33,0.435c-0.234,0.193-0.487,0.408-0.76,0.645
		c-0.149,0.226-0.333,0.465-0.548,0.717c-0.216,0.253-0.469,0.502-0.76,0.75c-0.094,0.139-0.174,0.263-0.239,0.37
		c-0.047,0.054-0.136,0.15-0.267,0.29c-0.132,0.14-0.305,0.301-0.521,0.483c-0.094,0.236-0.298,0.542-0.612,0.919
		c-0.313,0.375-0.733,0.826-1.259,1.354c-0.065,0.074-0.183,0.246-0.352,0.516c-0.168,0.268-0.389,0.623-0.66,1.063l0.098,0.146
		c0.206-0.075,0.422-0.204,0.647-0.387c0.225-0.183,0.474-0.425,0.745-0.726c0.318-0.332,0.579-0.604,0.78-0.813
		c0.202-0.209,0.345-0.347,0.43-0.411c0.065-0.043,0.131-0.086,0.196-0.129s0.141-0.096,0.226-0.16
		c0.431-0.592,0.834-1.029,1.209-1.313s0.722-0.427,1.041-0.427c0.196,0,0.347,0.088,0.45,0.266
		c0.103,0.177,0.164,0.443,0.183,0.797c-0.019,0.537-0.028,1.053-0.028,1.547c-0.01,0.344,0.072,0.653,0.246,0.927
		c0.174,0.274,0.401,0.411,0.683,0.411c0.084,0,0.166-0.027,0.246-0.08c0.079-0.055,0.161-0.124,0.246-0.21
		c0.065-0.097,0.128-0.188,0.189-0.274c0.061-0.086,0.124-0.172,0.189-0.258c0.038-0.021,0.092-0.059,0.162-0.112
		s0.139-0.118,0.204-0.193c0.131,0.322,0.241,0.604,0.33,0.846c0.089,0.242,0.157,0.454,0.204,0.637
		c-0.216,0.226-0.429,0.459-0.64,0.701c-0.211,0.241-0.434,0.47-0.668,0.685c-0.281,0.247-0.554,0.433-0.815,0.556
		c-0.263,0.124-0.525,0.186-0.788,0.186c-0.609,0-1.078-0.198-1.406-0.597c-0.328-0.396-0.521-0.998-0.577-1.805
		c0-0.096-0.012-0.195-0.035-0.298c-0.023-0.102-0.072-0.206-0.147-0.313c-0.047,0.053-0.099,0.109-0.154,0.169
		c-0.057,0.06-0.122,0.137-0.197,0.233c-0.122,0.107-0.274,0.242-0.457,0.402c-0.183,0.162-0.396,0.355-0.64,0.58
		c-0.328,0.387-0.604,0.704-0.83,0.951c-0.225,0.247-0.384,0.424-0.478,0.531c-0.188,0.184-0.406,0.365-0.654,0.549
		c-0.249,0.182-0.527,0.37-0.837,0.563c-0.196,0.118-0.365,0.212-0.506,0.282c-0.141,0.069-0.244,0.104-0.31,0.104
		c-0.45,0-0.783-0.126-0.999-0.379c-0.215-0.252-0.323-0.642-0.323-1.168c0-0.29,0.055-0.566,0.162-0.83
		c0.107-0.263,0.27-0.519,0.485-0.765c0.019-0.141,0.027-0.253,0.027-0.339c0-0.054-0.012-0.11-0.035-0.169
		s-0.054-0.127-0.091-0.201c-0.057-0.15-0.12-0.32-0.19-0.508s-0.147-0.39-0.231-0.604c0.037-0.043,0.091-0.126,0.161-0.25
		C74.529,22.663,74.612,22.51,74.705,22.327z"/>
	<path fill="#FFFFFF" d="M85.071,23.036l0.084-0.112c0.037-0.15,0.119-0.313,0.246-0.484s0.307-0.344,0.541-0.516
		c0.31-0.225,0.551-0.408,0.725-0.547c0.174-0.141,0.279-0.242,0.316-0.307c0.085-0.118,0.141-0.209,0.169-0.273
		c0.103-0.086,0.229-0.205,0.38-0.355c0.149-0.15,0.318-0.332,0.506-0.547c0.065-0.055,0.136-0.141,0.211-0.258
		c0.075-0.119,0.15-0.253,0.226-0.403c0.121-0.097,0.26-0.22,0.414-0.371c0.155-0.15,0.336-0.344,0.542-0.58
		c0.234-0.29,0.499-0.609,0.795-0.958c0.295-0.349,0.625-0.712,0.991-1.088c0.122-0.064,0.236-0.115,0.345-0.153
		c0.107-0.037,0.213-0.056,0.316-0.056c0.422,0,0.738,0.116,0.949,0.346c0.211,0.231,0.316,0.562,0.316,0.991
		c0,0.107-0.017,0.285-0.05,0.532c-0.032,0.247-0.067,0.559-0.105,0.935c-0.131,1.085-0.225,1.746-0.281,1.982
		c-0.056,0.236-0.253,0.978-0.59,2.224c-0.075,0.204-0.153,0.456-0.232,0.757c-0.08,0.301-0.176,0.666-0.288,1.096
		c0.019,0.043,0.065,0.086,0.141,0.129c0.065,0,0.183-0.072,0.352-0.217c0.169-0.146,0.394-0.363,0.675-0.652
		c0.328-0.344,0.586-0.607,0.773-0.79s0.305-0.29,0.352-0.322c0.112,0.29,0.216,0.556,0.31,0.798
		c0.094,0.241,0.173,0.47,0.239,0.685c-0.122,0.086-0.232,0.183-0.331,0.29s-0.189,0.226-0.274,0.354
		c-0.196,0.15-0.424,0.322-0.682,0.516s-0.541,0.403-0.851,0.628c-0.141,0.162-0.331,0.357-0.57,0.589
		c-0.238,0.231-0.508,0.491-0.809,0.781l-0.267,0.064c-0.132,0.204-0.256,0.36-0.373,0.468s-0.223,0.182-0.316,0.225
		c-0.15,0.064-0.3,0.127-0.45,0.186c-0.149,0.059-0.31,0.121-0.478,0.186c-0.104-0.032-0.179-0.102-0.226-0.209
		s-0.065-0.248-0.056-0.42c-0.141-0.289-0.254-0.623-0.338-0.998c-0.084-0.377-0.127-0.795-0.127-1.258
		c0-0.086,0.005-0.177,0.015-0.273c0.009-0.097,0.019-0.183,0.028-0.258c-0.066-0.279-0.099-0.445-0.099-0.5
		c0-0.322,0.107-0.588,0.323-0.797c0.216-0.21,0.459-0.314,0.731-0.314c0.141,0,0.241,0.084,0.303,0.25
		c0.061,0.166,0.124,0.25,0.189,0.25s0.134-0.148,0.204-0.443s0.138-0.729,0.204-1.297c0.065-0.494,0.107-0.924,0.126-1.289
		s0.028-0.645,0.028-0.838c0-0.141-0.026-0.244-0.077-0.314c-0.052-0.07-0.139-0.105-0.261-0.105s-0.516,0.322-1.181,0.967
		c-0.666,0.645-1.595,1.606-2.785,2.885c-0.037,0.075-0.091,0.166-0.161,0.273s-0.153,0.242-0.246,0.403
		c-0.038-0.161-0.104-0.36-0.197-0.597S85.221,23.391,85.071,23.036z"/>
	<path fill="#FFFFFF" d="M93.875,23.036c0.206-0.204,0.365-0.365,0.478-0.483s0.202-0.221,0.268-0.307
		c0.149-0.16,0.271-0.316,0.365-0.467s0.146-0.285,0.155-0.402c0.084-0.365,0.183-0.822,0.295-1.37s0.258-1.182,0.437-1.901
		c0.084-0.215,0.176-0.486,0.273-0.813c0.099-0.328,0.204-0.696,0.316-1.104c0.113-0.537,0.254-1.026,0.422-1.466
		c0.169-0.44,0.356-0.838,0.563-1.192c0.066-0.097,0.132-0.218,0.197-0.362c0.065-0.146,0.131-0.314,0.197-0.508
		c0.065-0.172,0.156-0.373,0.274-0.604c0.116-0.23,0.25-0.502,0.4-0.813c0.384-0.645,0.722-1.198,1.013-1.66
		c0.29-0.462,0.529-0.833,0.717-1.112c0.338-0.462,0.678-0.895,1.02-1.297c0.343-0.403,0.688-0.776,1.034-1.12
		c0.318-0.312,0.595-0.54,0.83-0.685c0.233-0.146,0.422-0.218,0.563-0.218c0.131,0.129,0.225,0.247,0.281,0.354
		c0.065,0,0.131-0.011,0.196-0.032c0.244,0,0.422,0.113,0.534,0.338c0.113,0.226,0.169,0.559,0.169,0.999
		c0,0.097-0.014,0.223-0.042,0.378c-0.028,0.156-0.065,0.347-0.112,0.572c-0.065,0.075-0.112,0.172-0.141,0.29
		s-0.052,0.236-0.07,0.354c-0.01,0.15-0.023,0.279-0.042,0.387c-0.02,0.107-0.043,0.204-0.07,0.29
		c-0.122,0.258-0.254,0.572-0.395,0.942c-0.141,0.371-0.29,0.803-0.449,1.297c-0.095,0.183-0.211,0.424-0.352,0.725
		s-0.31,0.634-0.507,0.999c-0.094,0.204-0.213,0.459-0.358,0.766c-0.146,0.306-0.331,0.658-0.556,1.055
		c-0.057,0.15-0.152,0.314-0.288,0.492c-0.137,0.177-0.298,0.384-0.485,0.62c-0.057,0.172-0.214,0.467-0.472,0.886
		s-0.616,0.961-1.075,1.627c-0.226,0.333-0.516,0.747-0.872,1.24c-0.356,0.494-0.769,1.08-1.237,1.757
		c-0.179,0.806-0.313,1.522-0.401,2.151c-0.089,0.628-0.134,1.174-0.134,1.635c0,0.184,0.012,0.32,0.035,0.411
		c0.023,0.092,0.068,0.138,0.134,0.138c0.047-0.076,0.115-0.162,0.204-0.258c0.089-0.098,0.181-0.21,0.274-0.339
		c0.178-0.183,0.387-0.521,0.626-1.015s0.513-1.134,0.822-1.918c0.272-0.709,0.516-1.254,0.731-1.636
		c0.216-0.381,0.394-0.609,0.534-0.685l0.492-0.242c0.094-0.043,0.179-0.08,0.254-0.112c0.074-0.032,0.136-0.048,0.183-0.048
		c0.121,0,0.234,0.086,0.337,0.258c0.104,0.172,0.188,0.408,0.254,0.709c0.121,0.547,0.22,0.969,0.295,1.265s0.117,0.47,0.127,0.523
		c0.121,0.322,0.269,0.559,0.442,0.709s0.382,0.226,0.626,0.226c0.291-0.054,0.633-0.129,1.026-0.226
		c0.075,0.215,0.162,0.446,0.261,0.692c0.099,0.248,0.199,0.511,0.302,0.79c-0.225,0.172-0.452,0.339-0.682,0.499
		c-0.229,0.162-0.457,0.322-0.682,0.484c-0.15,0.096-0.366,0.169-0.647,0.217c-0.281,0.049-0.609,0.072-0.984,0.072
		c-0.572,0-1.015-0.309-1.329-0.926s-0.504-0.922-0.569-0.91h-0.085c-0.149,0.215-0.307,0.435-0.471,0.66s-0.326,0.462-0.485,0.709
		c-0.104,0.247-0.248,0.531-0.436,0.854s-0.413,0.678-0.676,1.064c-0.309,0.43-0.581,0.752-0.815,0.967s-0.436,0.322-0.604,0.322
		c-0.356,0-0.636-0.047-0.837-0.138s-0.321-0.228-0.358-0.411c-0.112-0.602-0.199-1.125-0.261-1.57
		c-0.061-0.445-0.091-0.824-0.091-1.137c0-0.096,0.005-0.182,0.014-0.258c0.01-0.074,0.019-0.145,0.028-0.209
		c0.028-0.14,0.061-0.29,0.099-0.451c0-0.054-0.012-0.094-0.035-0.121c-0.023-0.026-0.063-0.04-0.12-0.04
		c-0.027,0.043-0.065,0.091-0.112,0.146c-0.047,0.053-0.112,0.112-0.196,0.177c-0.038-0.14-0.104-0.333-0.197-0.58
		S94.024,23.391,93.875,23.036z M103.016,8.147c-0.103,0-0.31,0.212-0.618,0.637c-0.31,0.424-0.703,1.05-1.182,1.877
		c-0.272,0.462-0.539,0.921-0.802,1.378s-0.521,0.905-0.773,1.345c-0.112,0.129-0.194,0.258-0.246,0.387s-0.077,0.263-0.077,0.403
		c-0.188,0.602-0.371,1.166-0.549,1.692c-0.169,0.569-0.307,1.01-0.415,1.321c-0.107,0.312-0.171,0.494-0.189,0.548l0.07,0.081
		c0.188-0.193,0.347-0.397,0.479-0.612c0.187-0.247,0.414-0.566,0.682-0.959c0.268-0.392,0.569-0.851,0.907-1.377
		c0.338-0.494,0.685-1.12,1.041-1.877c0.355-0.757,0.74-1.63,1.152-2.618c0.234-0.537,0.41-0.967,0.528-1.289
		c0.116-0.322,0.176-0.548,0.176-0.677c0-0.075-0.013-0.137-0.035-0.186C103.14,8.172,103.091,8.147,103.016,8.147z"/>
	<path fill="#FFFFFF" d="M104.197,23.036l0.084-0.112l0.042-0.162c0.253-0.396,0.698-0.915,1.336-1.555
		c0.638-0.639,1.078-1.157,1.322-1.555c0.094-0.172,0.201-0.295,0.323-0.371c0.122-0.075,0.244-0.112,0.366-0.112
		c0.328,0,0.604,0.094,0.829,0.282c0.226,0.188,0.375,0.47,0.45,0.846c0.065,0.333,0.127,0.669,0.183,1.007
		c0.057,0.339,0.104,0.68,0.141,1.023c0.065,0.215,0.146,0.54,0.239,0.975c0.094,0.436,0.164,0.685,0.211,0.749
		c0.047,0.107,0.117,0.186,0.211,0.234c0.094,0.048,0.211,0.072,0.352,0.072c0.169,0,0.343-0.035,0.521-0.104
		s0.361-0.19,0.549-0.362c0.141-0.141,0.288-0.282,0.442-0.428c0.155-0.145,0.308-0.287,0.457-0.427l0.563,1.482
		c-0.149,0.172-0.349,0.368-0.598,0.588c-0.248,0.221-0.546,0.476-0.893,0.766c-0.385,0.322-0.713,0.562-0.984,0.717
		c-0.272,0.156-0.479,0.233-0.619,0.233c-0.854,0-1.406-0.112-1.659-0.338s-0.534-0.854-0.844-1.885
		c-0.038-0.086-0.094-0.188-0.169-0.307s-0.159-0.258-0.253-0.419c-0.112-0.247-0.211-0.433-0.296-0.556
		c-0.084-0.123-0.154-0.186-0.211-0.186c-0.149,0-0.352,0.115-0.604,0.347s-0.563,0.577-0.928,1.039
		c-0.048-0.14-0.105-0.306-0.176-0.499s-0.144-0.42-0.219-0.678c-0.019-0.064-0.042-0.123-0.07-0.177
		C104.268,23.111,104.234,23.068,104.197,23.036z M110.075,10.323c0.234,0,0.405,0.054,0.514,0.161
		c0.107,0.107,0.161,0.263,0.161,0.467c-0.056,0.301-0.103,0.553-0.141,0.757c-0.094,0.387-0.176,0.704-0.246,0.951
		s-0.124,0.424-0.161,0.532c-0.085,0.236-0.199,0.443-0.345,0.621c-0.146,0.177-0.321,0.335-0.527,0.475
		c-0.216,0.172-0.396,0.293-0.541,0.363c-0.146,0.07-0.246,0.099-0.303,0.088c-0.159-0.021-0.312-0.041-0.457-0.056
		c-0.146-0.017-0.288-0.024-0.429-0.024c-0.122-0.075-0.219-0.22-0.289-0.435s-0.105-0.505-0.105-0.87
		c0-0.322,0.171-0.728,0.514-1.216c0.342-0.489,0.645-0.75,0.907-0.782c0.159-0.226,0.347-0.483,0.563-0.773
		c0.094-0.075,0.216-0.137,0.365-0.185C109.705,10.347,109.879,10.323,110.075,10.323z"/>
	<path fill="#FFFFFF" d="M112.242,23.036c0.065-0.075,0.133-0.175,0.203-0.298s0.153-0.261,0.246-0.411l1.083-0.854
		c0.132-0.182,0.333-0.416,0.605-0.7c0.271-0.284,0.609-0.632,1.012-1.04c0.047-0.117,0.125-0.254,0.232-0.41
		c0.107-0.156,0.236-0.309,0.387-0.459c0.131-0.14,0.263-0.271,0.394-0.395c0.132-0.123,0.254-0.244,0.366-0.362
		c0.141-0.161,0.274-0.322,0.4-0.483c0.127-0.161,0.256-0.317,0.387-0.467c0.15-0.15,0.305-0.269,0.464-0.354
		c0.16-0.086,0.333-0.129,0.521-0.129c0.206,0,0.363,0.03,0.472,0.088c0.107,0.06,0.166,0.143,0.176,0.25
		c-0.094,0.247-0.192,0.494-0.296,0.741l0.085,0.145c0.412-0.183,0.735-0.317,0.97-0.403s0.385-0.129,0.45-0.129
		c0.685,0,1.198,0.239,1.54,0.717c0.342,0.479,0.514,1.2,0.514,2.167c0,0.184-0.02,0.398-0.057,0.645
		c-0.037,0.248-0.099,0.516-0.183,0.807c-0.094,0.322-0.194,0.59-0.303,0.805c-0.107,0.215-0.208,0.371-0.302,0.468
		c0.037,0.14,0.079,0.239,0.126,0.298c0.047,0.06,0.108,0.089,0.184,0.089c0.074,0,0.151-0.026,0.231-0.081
		c0.08-0.053,0.176-0.134,0.288-0.241c0.094,0.236,0.186,0.481,0.274,0.733s0.181,0.502,0.274,0.749
		c-0.169,0.172-0.333,0.339-0.492,0.499c-0.159,0.162-0.328,0.317-0.506,0.468c-0.216,0.204-0.42,0.353-0.612,0.443
		s-0.382,0.137-0.569,0.137c-0.216,0-0.394-0.06-0.534-0.177c-0.141-0.119-0.254-0.285-0.338-0.5
		c-0.234,0.354-0.519,0.68-0.851,0.975c-0.333,0.296-0.701,0.54-1.104,0.733c-0.234,0.129-0.447,0.229-0.64,0.298
		c-0.192,0.07-0.368,0.105-0.527,0.105c-0.047,0-0.139,0.021-0.274,0.064s-0.246,0.064-0.33,0.064c-0.535,0-1.018-0.258-1.449-0.773
		c-0.431-0.516-0.646-1.091-0.646-1.725c0-0.258,0.052-0.599,0.154-1.023c0.104-0.424,0.155-0.674,0.155-0.749
		s-0.021-0.137-0.063-0.186c-0.042-0.048-0.101-0.072-0.176-0.072c-0.047,0-0.159,0.081-0.338,0.241
		c-0.178,0.162-0.431,0.393-0.759,0.693c-0.028,0.043-0.062,0.107-0.099,0.193c-0.038,0.086-0.099,0.183-0.183,0.29
		c-0.075-0.247-0.16-0.497-0.254-0.749C112.458,23.518,112.354,23.272,112.242,23.036z M119.007,20.088
		c-0.048,0.01-0.115,0.066-0.204,0.169c-0.09,0.103-0.176,0.228-0.261,0.378c-0.131,0.248-0.281,0.516-0.45,0.807
		c-0.103,0.129-0.213,0.229-0.33,0.298s-0.251,0.12-0.4,0.153c-0.095,0.01-0.192,0.115-0.296,0.313
		c-0.104,0.199-0.206,0.486-0.31,0.862c-0.103,0.333-0.178,0.617-0.225,0.854s-0.07,0.436-0.07,0.597
		c0,0.301,0.065,0.526,0.197,0.677c0.131,0.15,0.332,0.226,0.604,0.226c0.431,0,0.827-0.137,1.188-0.411
		c0.36-0.273,0.7-0.685,1.02-1.232c0.149-0.204,0.29-0.397,0.422-0.58c0.075-0.064,0.136-0.169,0.183-0.314
		c0.047-0.145,0.094-0.324,0.141-0.539l0.253-0.919c-0.084-0.322-0.164-0.577-0.239-0.766c-0.075-0.188-0.149-0.304-0.225-0.347
		c-0.047-0.031-0.15-0.066-0.31-0.104C119.536,20.171,119.307,20.131,119.007,20.088z"/>
	<path fill="#FFFFFF" d="M122.41,23.036c0.037-0.075,0.086-0.158,0.147-0.25c0.061-0.091,0.134-0.201,0.218-0.33
		c0.094-0.086,0.216-0.21,0.365-0.37c0.15-0.162,0.319-0.35,0.507-0.564c0.169-0.215,0.375-0.48,0.619-0.798
		c0.243-0.316,0.538-0.7,0.886-1.151c0.149-0.184,0.337-0.417,0.563-0.701c0.225-0.285,0.492-0.626,0.802-1.023
		c0.262-0.354,0.543-0.618,0.844-0.79c0.3-0.172,0.618-0.258,0.956-0.258s0.586,0.121,0.745,0.363
		c0.159,0.241,0.239,0.593,0.239,1.055c0,0.247-0.08,0.72-0.239,1.418c-0.159,0.697-0.407,1.621-0.745,2.771
		c-0.084,0.215-0.164,0.418-0.239,0.611c-0.056,0.141-0.094,0.264-0.112,0.371s-0.028,0.188-0.028,0.242
		c0,0.064,0.033,0.145,0.099,0.241c0.047-0.032,0.092-0.075,0.134-0.129s0.091-0.118,0.147-0.193
		c0.075-0.161,0.189-0.33,0.345-0.508c0.154-0.177,0.34-0.373,0.556-0.588c0.084-0.183,0.194-0.362,0.33-0.54
		c0.136-0.177,0.288-0.341,0.457-0.491c0.037-0.043,0.087-0.112,0.147-0.21c0.062-0.096,0.134-0.198,0.219-0.306
		c0.121-0.14,0.267-0.284,0.436-0.435s0.365-0.307,0.591-0.468c0.253-0.15,0.48-0.269,0.682-0.354
		c0.202-0.086,0.378-0.129,0.527-0.129c0.291,0,0.549,0.08,0.773,0.242c0.226,0.16,0.418,0.413,0.577,0.757
		c0.188,0.666,0.365,1.284,0.534,1.853c0.104,0.334,0.218,0.58,0.345,0.742c0.127,0.16,0.27,0.241,0.429,0.241
		c0.122,0,0.232-0.026,0.331-0.081c0.098-0.053,0.189-0.134,0.273-0.241l0.563,1.482c-0.159,0.15-0.323,0.306-0.492,0.468
		c-0.168,0.16-0.332,0.316-0.492,0.467c-0.216,0.226-0.417,0.385-0.604,0.476s-0.375,0.137-0.563,0.137
		c-0.216,0-0.422-0.054-0.619-0.161c-0.196-0.107-0.365-0.269-0.506-0.483c-0.075-0.086-0.169-0.244-0.281-0.476
		c-0.112-0.23-0.244-0.518-0.394-0.861c-0.122-0.141-0.261-0.325-0.415-0.557c-0.154-0.23-0.335-0.502-0.542-0.813l-0.126-0.048
		c-0.178,0.064-0.354,0.16-0.527,0.289c-0.173,0.129-0.357,0.296-0.555,0.5c-0.421,0.43-0.726,0.698-0.913,0.806
		s-0.313,0.231-0.379,0.37c-0.131,0.258-0.356,0.592-0.675,1s-0.716,0.891-1.193,1.449c-0.122,0.141-0.243,0.277-0.365,0.411
		c-0.122,0.135-0.243,0.267-0.365,0.396c-0.122,0.117-0.26,0.201-0.414,0.249c-0.155,0.049-0.326,0.073-0.513,0.073
		c-0.375,0-0.579-0.148-0.612-0.443s-0.063-0.594-0.091-0.895c0.141-0.451,0.3-1.016,0.478-1.691
		c0.178-0.678,0.383-1.467,0.615-2.369c0-0.054,0.016-0.126,0.049-0.218c0.032-0.091,0.071-0.212,0.118-0.362
		c0.046-0.14,0.079-0.26,0.097-0.362c0.019-0.103,0.028-0.19,0.028-0.267c0-0.074-0.023-0.134-0.07-0.177s-0.122-0.064-0.225-0.064
		c-0.094,0-0.219,0.064-0.373,0.193s-0.34,0.333-0.556,0.612c-0.263,0.322-0.474,0.574-0.633,0.758
		c-0.159,0.182-0.268,0.289-0.323,0.322c-0.094,0.074-0.204,0.182-0.331,0.322c-0.126,0.139-0.27,0.295-0.429,0.467
		c-0.019,0.043-0.047,0.107-0.084,0.193c-0.038,0.086-0.099,0.183-0.183,0.29c-0.038-0.161-0.104-0.36-0.197-0.597
		S122.56,23.391,122.41,23.036z"/>
	<path fill="#FFFFFF" d="M135.854,23.036l0.084-0.112l0.042-0.162c0.253-0.396,0.698-0.915,1.336-1.555
		c0.638-0.639,1.078-1.157,1.322-1.555c0.094-0.172,0.201-0.295,0.323-0.371c0.122-0.075,0.244-0.112,0.366-0.112
		c0.328,0,0.604,0.094,0.829,0.282c0.226,0.188,0.375,0.47,0.45,0.846c0.065,0.333,0.127,0.669,0.183,1.007
		c0.057,0.339,0.104,0.68,0.141,1.023c0.065,0.215,0.146,0.54,0.239,0.975c0.094,0.436,0.164,0.685,0.211,0.749
		c0.047,0.107,0.117,0.186,0.211,0.234c0.094,0.048,0.211,0.072,0.352,0.072c0.169,0,0.343-0.035,0.521-0.104
		s0.361-0.19,0.549-0.362c0.141-0.141,0.288-0.282,0.442-0.428c0.155-0.145,0.308-0.287,0.457-0.427l0.563,1.482
		c-0.149,0.172-0.349,0.368-0.598,0.588c-0.248,0.221-0.546,0.476-0.893,0.766c-0.385,0.322-0.713,0.562-0.984,0.717
		c-0.272,0.156-0.479,0.233-0.619,0.233c-0.854,0-1.406-0.112-1.659-0.338s-0.534-0.854-0.844-1.885
		c-0.038-0.086-0.094-0.188-0.169-0.307s-0.159-0.258-0.253-0.419c-0.112-0.247-0.211-0.433-0.296-0.556
		c-0.084-0.123-0.154-0.186-0.211-0.186c-0.149,0-0.352,0.115-0.604,0.347s-0.563,0.577-0.928,1.039
		c-0.048-0.14-0.105-0.306-0.176-0.499s-0.144-0.42-0.219-0.678c-0.019-0.064-0.042-0.123-0.07-0.177
		C135.925,23.111,135.892,23.068,135.854,23.036z M141.732,10.323c0.234,0,0.405,0.054,0.514,0.161
		c0.107,0.107,0.161,0.263,0.161,0.467c-0.056,0.301-0.103,0.553-0.141,0.757c-0.094,0.387-0.176,0.704-0.246,0.951
		s-0.124,0.424-0.161,0.532c-0.085,0.236-0.199,0.443-0.345,0.621c-0.146,0.177-0.321,0.335-0.527,0.475
		c-0.216,0.172-0.396,0.293-0.541,0.363c-0.146,0.07-0.246,0.099-0.303,0.088c-0.159-0.021-0.312-0.041-0.457-0.056
		c-0.146-0.017-0.288-0.024-0.429-0.024c-0.122-0.075-0.219-0.22-0.289-0.435s-0.105-0.505-0.105-0.87
		c0-0.322,0.171-0.728,0.514-1.216c0.342-0.489,0.645-0.75,0.907-0.782c0.159-0.226,0.347-0.483,0.563-0.773
		c0.094-0.075,0.216-0.137,0.365-0.185C141.362,10.347,141.536,10.323,141.732,10.323z"/>
	<path fill="#FFFFFF" d="M143.899,23.036l0.084-0.112c0.037-0.15,0.119-0.313,0.246-0.484s0.307-0.344,0.541-0.516
		c0.31-0.225,0.551-0.408,0.725-0.547c0.174-0.141,0.279-0.242,0.316-0.307c0.085-0.118,0.141-0.209,0.169-0.273
		c0.103-0.086,0.229-0.205,0.38-0.355c0.149-0.15,0.318-0.332,0.506-0.547c0.065-0.055,0.136-0.141,0.211-0.258
		c0.075-0.119,0.15-0.253,0.226-0.403c0.121-0.097,0.26-0.22,0.414-0.371c0.155-0.15,0.336-0.344,0.542-0.58
		c0.234-0.29,0.499-0.609,0.795-0.958c0.295-0.349,0.625-0.712,0.991-1.088c0.122-0.064,0.236-0.115,0.345-0.153
		c0.107-0.037,0.213-0.056,0.316-0.056c0.422,0,0.738,0.116,0.949,0.346c0.211,0.231,0.316,0.562,0.316,0.991
		c0,0.107-0.017,0.285-0.05,0.532c-0.032,0.247-0.067,0.559-0.105,0.935c-0.131,1.085-0.225,1.746-0.281,1.982
		c-0.056,0.236-0.253,0.978-0.59,2.224c-0.075,0.204-0.153,0.456-0.232,0.757c-0.08,0.301-0.176,0.666-0.288,1.096
		c0.019,0.043,0.065,0.086,0.141,0.129c0.065,0,0.183-0.072,0.352-0.217c0.169-0.146,0.394-0.363,0.675-0.652
		c0.328-0.344,0.586-0.607,0.773-0.79s0.305-0.29,0.352-0.322c0.112,0.29,0.216,0.556,0.31,0.798
		c0.094,0.241,0.173,0.47,0.239,0.685c-0.122,0.086-0.232,0.183-0.331,0.29s-0.189,0.226-0.274,0.354
		c-0.196,0.15-0.424,0.322-0.682,0.516s-0.541,0.403-0.851,0.628c-0.141,0.162-0.331,0.357-0.57,0.589
		c-0.238,0.231-0.508,0.491-0.809,0.781l-0.267,0.064c-0.132,0.204-0.256,0.36-0.373,0.468s-0.223,0.182-0.316,0.225
		c-0.15,0.064-0.3,0.127-0.45,0.186c-0.149,0.059-0.31,0.121-0.478,0.186c-0.104-0.032-0.179-0.102-0.226-0.209
		s-0.065-0.248-0.056-0.42c-0.141-0.289-0.254-0.623-0.338-0.998c-0.084-0.377-0.127-0.795-0.127-1.258
		c0-0.086,0.005-0.177,0.015-0.273c0.009-0.097,0.019-0.183,0.028-0.258c-0.066-0.279-0.099-0.445-0.099-0.5
		c0-0.322,0.107-0.588,0.323-0.797c0.216-0.21,0.459-0.314,0.731-0.314c0.141,0,0.241,0.084,0.303,0.25
		c0.061,0.166,0.124,0.25,0.189,0.25s0.134-0.148,0.204-0.443s0.138-0.729,0.204-1.297c0.065-0.494,0.107-0.924,0.126-1.289
		s0.028-0.645,0.028-0.838c0-0.141-0.026-0.244-0.077-0.314c-0.052-0.07-0.139-0.105-0.261-0.105s-0.516,0.322-1.181,0.967
		c-0.666,0.645-1.595,1.606-2.785,2.885c-0.037,0.075-0.091,0.166-0.161,0.273s-0.153,0.242-0.246,0.403
		c-0.038-0.161-0.104-0.36-0.197-0.597S144.049,23.391,143.899,23.036z"/>
	<path fill="#FFFFFF" d="M152.703,23.036l0.056-0.129c0.057-0.086,0.129-0.193,0.218-0.322c0.09-0.129,0.195-0.279,0.316-0.451
		c0.666-0.709,1.315-1.555,1.948-2.538c0.633-0.982,1.259-2.113,1.878-3.392c0.074-0.118,0.159-0.274,0.253-0.467
		s0.196-0.435,0.31-0.725c0-0.064-0.015-0.113-0.043-0.145c-0.027-0.032-0.075-0.048-0.141-0.048c-0.056,0-0.147,0.019-0.273,0.057
		c-0.127,0.038-0.224,0.056-0.289,0.056h-1.758c-0.075,0-0.199-0.005-0.372-0.016c-0.174-0.011-0.298-0.016-0.373-0.016
		c-0.094-0.054-0.181-0.099-0.261-0.137c-0.079-0.037-0.156-0.078-0.231-0.121c-0.112-0.043-0.199-0.099-0.261-0.169
		c-0.061-0.069-0.091-0.153-0.091-0.25c0-0.688,0.063-1.214,0.189-1.579c0.127-0.365,0.321-0.548,0.585-0.548
		c0.262,0,0.509,0.014,0.738,0.041s0.434,0.062,0.612,0.104c0.141-0.032,0.272-0.064,0.395-0.097c0.253,0,0.469,0.011,0.647,0.032
		c0.178,0.021,0.313,0.048,0.408,0.081c0.121-0.032,0.241-0.062,0.358-0.088s0.246-0.057,0.387-0.089l0.465,0.161
		c0.328-0.043,0.679-0.569,1.05-1.579c0.37-1.01,0.767-1.515,1.189-1.515c0.226,0,0.398,0.081,0.521,0.242s0.183,0.397,0.183,0.709
		c0,0.247-0.063,0.572-0.19,0.975c-0.127,0.402-0.199,0.706-0.218,0.91c0.019,0.043,0.044,0.089,0.076,0.137
		c0.032,0.049,0.08,0.105,0.145,0.169c0.056,0.043,0.095,0.116,0.118,0.217c0.022,0.103,0.034,0.229,0.034,0.379
		c0,0.645-0.025,1.142-0.077,1.49c-0.051,0.35-0.133,0.529-0.245,0.54l-0.953,0.226c-0.019,0.107-0.042,0.239-0.07,0.395
		c-0.028,0.156-0.065,0.336-0.113,0.54c-0.159,0.537-0.338,1.219-0.535,2.046s-0.418,1.804-0.662,2.933
		c-0.151,0.902-0.266,1.633-0.346,2.191s-0.12,0.934-0.12,1.127c0,0.172,0.023,0.301,0.07,0.387s0.117,0.129,0.211,0.129
		c0.057,0,0.261-0.155,0.612-0.467s0.841-0.773,1.47-1.386l0.548,1.482c-0.094,0.118-0.225,0.258-0.394,0.419
		s-0.37,0.333-0.604,0.516c-0.094,0.118-0.211,0.25-0.352,0.395c-0.141,0.146-0.296,0.314-0.465,0.508
		c-0.168,0.215-0.335,0.43-0.499,0.645s-0.33,0.424-0.499,0.629c-0.225,0.279-0.445,0.48-0.661,0.604s-0.417,0.186-0.604,0.186
		c-0.413,0-0.72-0.14-0.921-0.419c-0.202-0.279-0.303-0.704-0.303-1.272c0-0.623,0.019-1.163,0.057-1.62
		c0.037-0.456,0.099-0.824,0.183-1.104c0.038-0.086,0.065-0.161,0.085-0.226c0-0.107,0.014-0.252,0.042-0.436
		c0.028-0.182,0.061-0.396,0.099-0.645c0.057-0.418,0.117-0.838,0.183-1.256c0.104-0.258,0.211-0.532,0.324-0.822
		c0-0.054-0.038-0.102-0.113-0.145l-0.141,0.096c-0.141,0.258-0.323,0.529-0.549,0.814c-0.225,0.285-0.492,0.582-0.802,0.895
		c-0.478,0.525-0.966,1.058-1.463,1.595c-0.028,0.054-0.079,0.134-0.154,0.241s-0.16,0.242-0.253,0.403
		c-0.048-0.129-0.105-0.292-0.176-0.491s-0.144-0.428-0.219-0.686c-0.019-0.064-0.042-0.123-0.07-0.177
		C152.773,23.111,152.74,23.068,152.703,23.036z"/>
	<path fill="#FFFFFF" d="M160.943,22.327l1.28-0.967c0.047-0.054,0.103-0.126,0.169-0.218c0.065-0.091,0.141-0.223,0.225-0.395
		c0.065-0.14,0.152-0.258,0.261-0.354c0.107-0.097,0.231-0.183,0.372-0.258c0.075-0.107,0.183-0.241,0.323-0.403
		c0.141-0.16,0.319-0.349,0.535-0.563c0.103-0.064,0.234-0.158,0.394-0.282c0.159-0.123,0.333-0.287,0.521-0.491
		c0.853-0.924,1.601-1.617,2.243-2.079c0.642-0.462,1.184-0.693,1.624-0.693c0.244,0,0.424,0.059,0.541,0.177s0.176,0.285,0.176,0.5
		c0,0.226-0.035,0.424-0.105,0.596s-0.18,0.317-0.33,0.435c-0.234,0.193-0.487,0.408-0.76,0.645
		c-0.149,0.226-0.333,0.465-0.548,0.717c-0.216,0.253-0.469,0.502-0.76,0.75c-0.094,0.139-0.174,0.263-0.239,0.37
		c-0.047,0.054-0.136,0.15-0.267,0.29c-0.132,0.14-0.305,0.301-0.521,0.483c-0.094,0.236-0.298,0.542-0.612,0.919
		c-0.313,0.375-0.733,0.826-1.259,1.354c-0.065,0.074-0.183,0.246-0.352,0.516c-0.168,0.268-0.389,0.623-0.66,1.063l0.098,0.146
		c0.206-0.075,0.422-0.204,0.647-0.387c0.225-0.183,0.474-0.425,0.745-0.726c0.318-0.332,0.579-0.604,0.78-0.813
		c0.202-0.209,0.345-0.347,0.43-0.411c0.065-0.043,0.131-0.086,0.196-0.129s0.141-0.096,0.226-0.16
		c0.431-0.592,0.834-1.029,1.209-1.313s0.722-0.427,1.041-0.427c0.196,0,0.347,0.088,0.45,0.266
		c0.103,0.177,0.164,0.443,0.183,0.797c-0.019,0.537-0.028,1.053-0.028,1.547c-0.01,0.344,0.072,0.653,0.246,0.927
		c0.174,0.274,0.401,0.411,0.683,0.411c0.084,0,0.166-0.027,0.246-0.08c0.079-0.055,0.161-0.124,0.246-0.21
		c0.065-0.097,0.128-0.188,0.189-0.274c0.061-0.086,0.124-0.172,0.189-0.258c0.038-0.021,0.092-0.059,0.162-0.112
		s0.139-0.118,0.204-0.193c0.131,0.322,0.241,0.604,0.33,0.846c0.089,0.242,0.157,0.454,0.204,0.637
		c-0.216,0.226-0.429,0.459-0.64,0.701c-0.211,0.241-0.434,0.47-0.668,0.685c-0.281,0.247-0.554,0.433-0.815,0.556
		c-0.263,0.124-0.525,0.186-0.788,0.186c-0.609,0-1.078-0.198-1.406-0.597c-0.328-0.396-0.521-0.998-0.577-1.805
		c0-0.096-0.012-0.195-0.035-0.298c-0.023-0.102-0.072-0.206-0.147-0.313c-0.047,0.053-0.099,0.109-0.154,0.169
		c-0.057,0.06-0.122,0.137-0.197,0.233c-0.122,0.107-0.274,0.242-0.457,0.402c-0.183,0.162-0.396,0.355-0.64,0.58
		c-0.328,0.387-0.604,0.704-0.83,0.951c-0.225,0.247-0.384,0.424-0.478,0.531c-0.188,0.184-0.406,0.365-0.654,0.549
		c-0.249,0.182-0.527,0.37-0.837,0.563c-0.196,0.118-0.365,0.212-0.506,0.282c-0.141,0.069-0.244,0.104-0.31,0.104
		c-0.45,0-0.783-0.126-0.999-0.379c-0.215-0.252-0.323-0.642-0.323-1.168c0-0.29,0.055-0.566,0.162-0.83
		c0.107-0.263,0.27-0.519,0.485-0.765c0.019-0.141,0.027-0.253,0.027-0.339c0-0.054-0.012-0.11-0.035-0.169
		s-0.054-0.127-0.091-0.201c-0.057-0.15-0.12-0.32-0.19-0.508s-0.147-0.39-0.231-0.604c0.037-0.043,0.091-0.126,0.161-0.25
		C160.768,22.663,160.851,22.51,160.943,22.327z"/>
</g>
<g>
	<g>
		<g>
			<g>
				<g>
					<path fill="#FFFFFF" d="M176.462,32.19c0.261,0.021,0.167-0.222,0.206-0.266C176.231,31.979,176.473,32.254,176.462,32.19z"/>
					<polygon fill="#FFFFFF" points="172.156,32.742 172.232,32.643 171.598,32.886 					"/>
					<path fill="#FFFFFF" d="M168.13,32.737c0.38,0.414,1.459-0.066,2.176,0.081l0.118,0.094l0.324-0.333
						C169.876,32.632,168.743,32.854,168.13,32.737z"/>
					<path fill="#FFFFFF" d="M165.982,31.842c0.133,0.161-0.464,0.139,0.501,0.051c-0.049-0.018-0.063-0.027-0.091-0.041
						C166.306,31.854,166.187,31.854,165.982,31.842z"/>
					<path fill="#FFFFFF" d="M166.393,31.852C166.816,31.84,166.115,31.717,166.393,31.852L166.393,31.852z"/>
					<path fill="#FFFFFF" d="M164.435,31.944l0.559-0.145c-0.117-0.095-0.614-0.116-0.43-0.186
						C163.991,31.693,164.108,31.788,164.435,31.944z"/>
					<path fill="#FFFFFF" d="M163.905,32.246l0.289-0.061C164.144,32.146,164.067,32.132,163.905,32.246z"/>
					<path fill="#FFFFFF" d="M164.809,32.057l-0.614,0.129c0.081,0.066,0.09,0.201,0.282-0.047
						C164.426,32.262,164.547,32.144,164.809,32.057z"/>
					<path fill="#FFFFFF" d="M165.155,32.12c0.313,0.09,0.719,0.146,0.158,0.29C166.382,32.354,166.224,32.062,165.155,32.12z"/>
					<path fill="#FFFFFF" d="M167.924,33.166l0.419,0.121l0.362-0.139C168.524,33.217,167.898,33.036,167.924,33.166z"/>
					<path fill="#FFFFFF" d="M160.955,31.729c-0.035,0.088,0.188,0.235,0.229,0.348l0.412-0.101
						C161.385,31.916,160.983,31.86,160.955,31.729z"/>
					<path fill="#FFFFFF" d="M161.185,32.077l-0.617,0.151C161.118,32.246,161.22,32.175,161.185,32.077z"/>
					<polygon fill="#FFFFFF" points="163.806,32.706 164.819,32.388 163.61,32.71 					"/>
					<polygon fill="#FFFFFF" points="158.598,31.719 158.947,31.515 158.324,31.823 					"/>
					<path fill="#FFFFFF" d="M157.034,31.754c0.259-0.168-0.355-0.285-0.081-0.39c-0.425,0.03-0.788,0.176-1.114,0.306
						C156.186,31.598,156.556,31.616,157.034,31.754z"/>
					<path fill="#FFFFFF" d="M155.29,31.86c0.174-0.041,0.354-0.113,0.549-0.19C155.654,31.709,155.473,31.766,155.29,31.86z"/>
					<path fill="#FFFFFF" d="M159.516,32.185c-0.048-0.053-0.14-0.192-0.485-0.251l0.242,0.248
						C159.347,32.183,159.431,32.184,159.516,32.185z"/>
					<path fill="#FFFFFF" d="M159.281,32.189l-0.009-0.008c-0.263-0.008-0.445-0.013-0.524-0.015
						C158.815,32.17,158.976,32.177,159.281,32.189z"/>
					<path fill="#FFFFFF" d="M159.577,32.186c-0.022,0-0.039,0-0.062-0.001C159.539,32.209,159.554,32.218,159.577,32.186z"/>
					<path fill="#FFFFFF" d="M162.188,32.481c-0.363,0.139-1.119,0.287-0.388,0.499C162.061,32.811,161.642,32.69,162.188,32.481z"
						/>
					<path fill="#FFFFFF" d="M159.879,32.496l0.655,0.057c-0.013-0.065-0.131-0.161,0.049-0.23L159.879,32.496z"/>
					<polygon fill="#FFFFFF" points="159.558,32.574 159.879,32.496 159.636,32.475 					"/>
					<path fill="#FFFFFF" d="M156.413,32.092c-0.283,0.108-0.593,0.117-0.942,0.135c0.375,0.049,0.763,0.075,1.131,0.074
						C156.653,32.223,156.815,32.083,156.413,32.092z"/>
					<path fill="#FFFFFF" d="M157.807,32.161l-0.063,0.014C157.783,32.196,157.813,32.203,157.807,32.161z"/>
					<polygon fill="#FFFFFF" points="152.025,32.225 152.08,32.27 152.093,32.227 					"/>
					<path fill="#FFFFFF" d="M156.664,32.347c0.282,0.048,0.451-0.013,0.611-0.089c-0.211,0.025-0.435,0.041-0.674,0.043
						C156.578,32.336,156.574,32.359,156.664,32.347z"/>
					<path fill="#FFFFFF" d="M154.329,31.977c0.146,0.052,0.313,0.096,0.488,0.136C154.674,32.034,154.381,31.911,154.329,31.977z"
						/>
					<path fill="#FFFFFF" d="M157.649,32.106l0.042-0.011C157.599,32.042,157.61,32.068,157.649,32.106z"/>
					<path fill="#FFFFFF" d="M157.649,32.106c-0.146,0.036-0.26,0.097-0.374,0.151c0.172-0.02,0.331-0.046,0.469-0.083
						C157.709,32.157,157.674,32.131,157.649,32.106z"/>
					<path fill="#FFFFFF" d="M150.981,33.815c0.05-0.229,0.791-0.441,1.431-0.195c0.63-0.172,0.218-0.928-0.332-1.351
						c-0.02,0.101-0.02,0.193-0.667,0.329c0.227,0.125,1.438,0.293,0.891,0.501c-0.858,0.118-0.703-0.081-1.12-0.203
						c0.354,0.287-1.092,0.417-0.905,0.838l0.753-0.148C151.045,33.651,150.772,33.756,150.981,33.815z"/>
					<path fill="#FFFFFF" d="M153.315,32.293l0.266-0.028c-0.304-0.04-0.521-0.132-0.922-0.312
						c-0.443,0.112-0.535,0.197-0.566,0.273l1.313,0.032L153.315,32.293z"/>
					<path fill="#FFFFFF" d="M154.778,32.264c-0.208,0.25-0.848,0.356-0.456,0.627c0.782-0.018,0.548-0.209,1.016-0.317
						c-1.263,0.063,0.362-0.14-0.55-0.281c0.248-0.042,0.472-0.055,0.683-0.065c-0.228-0.03-0.447-0.068-0.653-0.114l0.029,0.016
						l0.006-0.001l-0.002,0.004c0.055,0.031,0.072,0.051,0.012,0.032c-0.005,0.003-0.02,0.004-0.026,0.005
						C154.827,32.203,154.804,32.233,154.778,32.264c-0.365-0.053-0.058-0.066,0.058-0.096c0.004-0.012,0.014-0.023,0.015-0.037
						l-0.004-0.003l-1.266,0.137C153.85,32.3,154.185,32.292,154.778,32.264z"/>
					<path fill="#FFFFFF" d="M161.125,33.518c-0.039-0.022-0.037-0.04-0.04-0.058C161.003,33.49,160.973,33.511,161.125,33.518z"/>
					<path fill="#FFFFFF" d="M160.605,33.366c0.092-0.034,0.168-0.135,0.467-0.108c0.26,0.075-0.001,0.119,0.013,0.202
						c0.18-0.066,0.631-0.18,0.065-0.301l-0.089,0.033c-0.51-0.085-1.164-0.397-1.075-0.432
						C160.136,32.985,160.267,33.146,160.605,33.366z"/>
					<path fill="#FFFFFF" d="M157.655,32.879l-1.053,0.123l0.536,0.216l-0.027-0.13C157.71,33.139,157.581,32.979,157.655,32.879z"
						/>
					<polygon fill="#FFFFFF" points="151.904,32.101 152.044,31.837 151.436,32.209 					"/>
					<polygon fill="#FFFFFF" points="150.536,32.132 150.587,31.902 150.226,32.041 					"/>
					<path fill="#FFFFFF" d="M73.302,34.98l-0.31,0.064C73.139,35.025,73.233,35.003,73.302,34.98z"/>
					<path fill="#FFFFFF" d="M75.542,34.996l0.055-0.113C75.493,34.945,75.451,34.991,75.542,34.996z"/>
					<path fill="#FFFFFF" d="M116.922,32.158c-0.45-0.215-0.954-0.547-0.899-0.289l0.139,0.252
						C116.476,32.076,116.717,32.104,116.922,32.158z"/>
					<path fill="#FFFFFF" d="M93.901,33.66l0.132,0.076c0.109-0.086,0.211-0.166,0.305-0.24
						C94.205,33.546,94.057,33.602,93.901,33.66z"/>
					<path fill="#FFFFFF" d="M93.583,34.701l-0.594-0.162C93.123,34.596,93.313,34.65,93.583,34.701z"/>
					<path fill="#FFFFFF" d="M61.065,35.247l-0.361,0.256C61.27,35.502,61.021,35.373,61.065,35.247z"/>
					<path fill="#FFFFFF" d="M136.519,32.225c-0.39-0.098-0.699-0.14-0.971-0.151C136.017,32.218,136.395,32.434,136.519,32.225z"/>
					<path fill="#FFFFFF" d="M74.184,32.31c-0.189,0.046-0.271,0.097-0.265,0.153C74.114,32.42,74.224,32.371,74.184,32.31z"/>
					<path fill="#FFFFFF" d="M134.425,32.074c0.068,0.024,0.136,0.037,0.205,0.059c0.284-0.042,0.57-0.076,0.918-0.06
						C135.202,31.965,134.806,31.899,134.425,32.074z"/>
					<path fill="#FFFFFF" d="M16.688,35.038c-0.032-0.011-0.071-0.017-0.1-0.029C16.578,35.042,16.622,35.044,16.688,35.038z"/>
					<path fill="#FFFFFF" d="M3.759,32.499c0.127-0.016,0.335-0.016,0.531-0.02C4.194,32.463,4.034,32.465,3.759,32.499z"/>
					<path fill="#FFFFFF" d="M145.029,32.022C145.319,32.006,145.075,31.994,145.029,32.022L145.029,32.022z"/>
					<path fill="#FFFFFF" d="M146.44,33.018c-0.062,0.028-0.108,0.064-0.115,0.122C146.349,33.079,146.39,33.041,146.44,33.018z"/>
					<path fill="#FFFFFF" d="M131.533,33.64l-0.025-0.001C131.594,33.688,131.579,33.679,131.533,33.64z"/>
					<path fill="#FFFFFF" d="M145.466,32.137c-0.109-0.031-0.234-0.057-0.371-0.075C145.154,32.081,145.268,32.105,145.466,32.137z"
						/>
					<path fill="#FFFFFF" d="M145.407,32.018c0.101,0.01,0.179,0.018,0.254,0.024C145.697,32,145.665,31.974,145.407,32.018z"/>
					<path fill="#FFFFFF" d="M144.625,32.036c0.166-0.004,0.32,0.008,0.47,0.025c-0.057-0.017-0.081-0.03-0.065-0.039
						C144.943,32.025,144.823,32.029,144.625,32.036z"/>
					<path fill="#FFFFFF" d="M40.465,34.365c-0.02-0.008-0.039-0.016-0.062-0.024C40.11,34.445,40.239,34.429,40.465,34.365z"/>
					<path fill="#FFFFFF" d="M109.367,34.771l0.033-0.013c-0.014-0.003-0.03-0.006-0.043-0.009L109.367,34.771z"/>
					<path fill="#FFFFFF" d="M108.325,34.959c0.443-0.313,0.696-0.275,1.032-0.209l-0.345-0.726L108.325,34.959z"/>
					<path fill="#FFFFFF" d="M67.937,35.053l0.732,0.226c-0.884,0.372-1.523,0.244-0.836,0.563c0.104-0.788,2.846-0.081,2.948-0.868
						l0.483,0.166c-0.139-0.008-0.161,0.038-0.297,0.03c0.939,0.378,0.697-0.569,1.907-0.457c0.421,0.061,0.716,0.175,0.428,0.269
						l0.939-0.195c0.273,0.016,0.206,0.152-0.066,0.137l1.433-0.063l-0.011,0.023c0.205-0.124,0.667-0.314,0.894-0.396
						c0.364,0.113-0.183,0.084-0.089,0.183l0.793-0.191c0.323,0.204-0.334,0.402-0.882,0.373c0.741,0.786,0.658-0.198,2.257,0.261
						l-0.749,0.101c0.483,0.446,1.067,0.285,1.914,0.563c-0.201-0.146-1.695-0.702-0.834-0.898c0.243,0.06,0.563,0.088,1.027-0.07
						c0.004,0.279,0.458,0.211,1.025,0.195l-0.039,0.371c0.613-0.107,0.565-0.297,0.926-0.464c0.684,0.037,0.826,0.324,0.986,0.566
						c1.095,0.059-0.756-0.461,0.54-0.53c0.911,0.142,1.55-0.01,2.639-0.232c0.637,0.128-0.111,0.228,0.117,0.333l0.565-0.296
						c0.138,0.008,0.094,0.099,0.071,0.145c0.476-0.115,0.039-0.371,0.787-0.472c0.202-0.409,1.537,0.597,2.463,0.133
						c0.228,0.105-0.11,0.228-0.041,0.371c1.271-0.305,1.089-0.221,2.133-0.631l0.889,0.243c-0.653-0.278,0.182-0.608,0.912-0.879
						c-0.231-0.135-0.43-0.252-0.563-0.309l1.167-0.199c0.141,0.062,0.023,0.188-0.168,0.344c0.077-0.032,0.151-0.063,0.214-0.089
						c0.417,0.137,0.2,0.351-0.099,0.559l-0.42-0.229c-0.288,0.226-0.558,0.476-0.497,0.692c0.075-0.043,0.222-0.079,0.382-0.1
						c-0.075,0.061-0.123,0.115-0.089,0.152c0.04,0.039,0.162-0.043,0.353-0.138l0.265,0.414l0.064-0.165l1.526,0.259
						c1.092-0.416,2.042-1.028,3.774-1.199c-0.43,0.303-0.092,0.495-0.115,0.854c-0.474-0.38-1.343,0.162-2.24,0.084
						c0.468,0.04,0.365,0.212,0.246,0.271l1.602-0.346c-0.036,0.294,0.341,0.22,0.759,0.342c-0.316-0.581,1.194-0.388,1.846-0.565
						c0.041,0.195-0.115,0.395-0.911,0.348c0.878,0.437,1.134-0.683,1.995-0.312c-0.194,0.005-0.299-0.024-0.375,0.074
						c0.453-0.173,1.562-0.036,1.301,0.134l-0.193,0.004c1.289,0.069,3.924,0.005,4.116-0.488c0.013,0.063-0.169,0.595-0.247,0.694
						l2.301-1.66c-0.203,0.424,0.575,1.433-0.494,1.672c0.307,0.061,0.687,0.131,1.334-0.019c-0.21-0.061-0.522-0.612-0.236-0.651
						c0.786,0.472,0.546,0.252,1.514,0.654c-0.313-0.091,0.035-0.755,0.531-0.734c-0.078,0.1,0.041,0.656-0.141,0.726l1.234-0.652
						c-0.308,0.117-0.054,0.553,0.222,0.737c-0.128-0.128,1.067,0.012,1.396-0.053l-0.522-0.151
						c1.394,0.099,1.376-0.917,2.759-0.883c-0.167,0.135-0.413,0.829,0.29,0.911c0.322-0.334,1.427-1.606,2.65-1.864l0.234,0.191
						l0.939-0.218c-0.585,0.503-2.226,1.561-3.121,1.972c0.521,0.151,0.146,0.226,0.927,0.208c0.275,0.179-0.426,0.271-0.656,0.282
						l1.819,0.115c-0.081-0.39,1.391-0.391,1.321-0.716l-1.976,0.404c-0.08-0.389,1.143-1.106,2.431-1.038
						c0.328,0.155-0.245,0.694-0.218,0.824c0.167-0.134,1.223-0.256,1.341-0.161l-0.546,0.208c0.717,0.147,1.17-0.517,2.032-0.145
						c0.298,0.025,0.889,0.502,0.94,0.271c-0.485-0.444-0.581-1.821-0.257-2.155c0.104,0.03,1.563,0.425,1.901,0.646
						c0.49,0.349-0.735,0.831-0.318,1.131c0.019-0.106,0.289-0.238,0.401-0.28c0.313,0.091-0.129,0.33,0.55,0.282
						c0.113-0.396,1.381,0.033,0.321-0.335c0.664-0.112,0.706,0.082,1.485,0.064c-0.248-0.256,0.7-0.869,1.366-0.982
						c-0.039,0.101,0.11,0.231,0.183,0.291c1.361,0.036,2.092,0.216,3.361,0.219c0.117,0.096,0.729,0.212,0.469,0.382
						c0.183-0.07,0.351-0.204,0.742-0.214c0.758,0.342-0.873,0.054-0.296,0.464c0.05-0.229,1.014-0.316,1.571-0.46
						c-0.172-0.354-1.289-0.068-1.848,0.075c-0.003-0.489,0.97-1.002,2.297-1.229c1.055-0.121,0.457,0.316,0.64,0.247
						c1.981,0.085,1.688-0.854,3.333-0.502c0.652,0.313,0.029,0.621,0.174,0.846c-0.858,0.118-1.318-0.198-1.901-0.186l0.717,0.147
						c-0.272,0.104-0.847,0.183-1.159,0.092c0.548,0.28,3.347,0.054,4.875,0.313c0.271-0.104,0.74-0.213,0.519-0.338l-0.483,0.044
						c-0.444-0.252,0.91-0.349,0.298-0.466c0.648-0.177,1.376-0.454,2.289-0.313l0.172,0.356c-0.02-0.104-0.597-0.212-0.854-0.104
						c0.38-0.157,1.399,0.481,1.817,0.017l-0.641-0.247c0.651-0.179,1.456-0.556,2.266-0.443c-0.368-0.352-0.187,0.04-0.762-0.371
						c0.499,0.511-2.07-0.021-1.27,0.516c-0.59-0.477-1.021-0.202-1.792-0.608c0.023,0.117,0.272,0.224-0.406,0.166
						c-0.031,0.034-0.104,0.078-0.149,0.104c-0.021-0.004-0.028-0.006-0.046-0.009l0.037,0.014
						c-0.029,0.018-0.031,0.021,0.015,0.005c0.161,0.052,0.293,0.113,0.346,0.179c-0.337,0.27-1.417,0.261-1.782,0.4
						c-0.403-0.057,0.168-0.135-0.052-0.26l-0.546,0.208c-0.054-0.261-1.071-0.433-0.121-0.585l-0.855-0.012
						c-0.503-0.146-1.195-0.204-1.622-0.095c-0.403-0.057-1.019,0.288-0.667,0.084l-1.341,0.162l-0.012-0.065
						c-1.323-0.033-2.724,0.432-4.235-0.039c-0.445,0.065-0.905,0.146-1.65,0.072l-0.146-0.226c-0.571,0.079-1.717-0.226-1.962,0.01
						c-0.617-0.606-2.775-0.133-3.78-0.24l-0.038,0.295c-0.692-0.018-1.355,0.066-2.215,0.185l0.053,0.26
						c-0.741,0.214-1.904-0.185-3.076-0.158c0.08-0.1,0.377-0.073,0.587-0.014c-1.399-0.587-2.953,0.428-4.222,0
						c-0.316,0.095-0.546,0.063-0.768-0.003c0.029-0.001,0.056-0.006,0.078-0.014c-0.032-0.001-0.08-0.002-0.13-0.003
						c-0.14-0.045-0.283-0.098-0.439-0.139c0.133,0.063,0.26,0.115,0.37,0.139c-0.244,0.006-0.614,0.038-0.977,0.104l-0.154-0.279
						c-0.03,0.003-0.053,0.005-0.084,0.008c-0.356-0.104-0.286,0.132-0.097,0.342c-0.183,0.046-0.35,0.102-0.479,0.169
						c-0.289-0.451-0.951,0.151-1.347-0.329c-0.244,0.234-1.823,0.177-2.017,0.67c-0.012-0.064-0.119-0.095,0.077-0.099
						c-0.404-0.057-0.809-0.112-1.171,0.026l-0.172-0.355l-0.883,0.478c-0.536-0.216-0.759-0.342-0.227-0.615
						c-1.285,0.42-1.043,0.158-2.137,0.575l0.054-0.229c-0.392,0.009-1.016,0.315-1.252,0.126c-0.874-0.437-4.327-0.061-6.571-0.466
						c0.436,0.676-1.044-0.303-1.133,0.221c-0.131-0.159-0.443-0.25-0.08-0.389c-1.146,0.157-1.721-0.254-2.512,0.188
						c-0.131-0.161,0.245-0.234,0.128-0.33c-0.092,0.035-0.363,0.14-0.482,0.044c-0.117-0.095,0.167-0.134,0.349-0.204
						c-1.17,0.027-1.288,0.52-1.374,0.982c-0.593-0.219-0.889-0.188-1.316,0.115c-0.207-0.151-0.551-0.31,0.176-0.364
						c-0.409-0.021-2.499-0.222-2.541,0.149c-0.128-0.094-0.572-0.027-0.679,0.016c-0.918-0.022-0.999-0.056-1.9-0.021l0.25,0.061
						c-0.355,0.447-0.749,0.1-1.476,0.153l0.021-0.046c-1.666-0.322-0.719,0.154-2.363-0.214l0.089,0.278
						c-0.153,0.599-1.457-0.353-2.411-0.124l0.345,0.159c-0.521,0.204-1.457-0.813-1.979-0.889c-0.114-0.052,0.18-0.083,0.339-0.122
						c-1.37-0.353-0.178,0.364-1.199,0.449c-0.188-0.196,0.243-0.5-0.444-0.536c-0.342-0.159-1.993,0.638-2.93,0.261
						c0.207,0.151,0.412,0.303-0.063,0.417c-0.727,0.054-1.965-0.573-2.621-0.096c-0.092-0.041-0.127-0.081-0.131-0.118
						c-0.556,0.123-1.806,0.204-2.14,0.463c-0.514-0.961-3.454,0.468-3.441-0.418l-1.709,0.047l0.045-0.09
						c-1.092-0.06-1.479,0.153-1.863,0.366c-0.252-0.061-0.068-0.144-0.047-0.189c-1.596-0.179-1.755-0.142-3.093,0.3l-0.139-0.287
						c-0.363,0.167-2.308-0.451-3.873-0.115c0.016-0.033,0.048-0.089,0.172-0.129c-1.761,0.337-4.216-0.798-4.862,0.249
						l-1.162,0.259c1.503,0.081-0.224,0.454,0.395,0.628c-0.591,0.062-1.529-0.316-0.802-0.37l0.113,0.053
						c0.267-0.546-1.868-0.193-1.828-0.565c-2.959,0.027-5.843-0.275-8.614-0.298l0.319,0.424l-0.967-0.024
						c-0.254-0.099-0.341-0.332,0.349-0.314c-0.363-0.24-1.157,0.201-1.176,0.294c-1.351-0.172,0.527-0.495,0.113-0.505
						l-0.563,0.031l0.127,0.05c-0.456,0.174-0.497,0.357-1.325,0.336c-0.524-0.085-0.269-0.262-0.476-0.277
						c0.001-0.03-0.069-0.045-0.317-0.013l-1.218-0.036l0.487,0.335c-0.54,0.165-1.145-0.018-0.583,0.362
						c-0.825-0.585-4.543-0.21-5.05-0.392c-0.756,0.244-1.502,0.239-2.427,0.21c0.229,0.069,0.367,0.446-0.43,0.4
						c0.292-0.777-1.46-0.338-2.104-0.896c0.576,0.371-2.267,0.092-1.363,0.618c-0.666-0.063-0.041-0.291-0.545-0.474
						c-1.583,0.301-3.49-0.196-5.447-0.095c-0.031,0.103,0.297,0.259-0.123,0.41L17.32,32.3c-0.387,0.05-0.356,0.589-1.062,0.234
						c0.1,0.086,0.249,0.216-0.011,0.248c-3.835-0.497-7.836,0.407-11.73-0.527c0.527,0.198,0.176,0.218-0.227,0.225
						c0.262,0.048-0.006,0.253,0.045,0.391l-1.63-0.384c-0.297,0.384-1.748,0.025-1.918,0.393l0.517-0.066
						c-0.687,0.434,0.96,0.963,0.86,1.519c0.769-0.492,2.027,0.729,3.289,0.024c0.278,0.113-0.238,0.179-0.089,0.308
						c0.32-0.238,0.706-0.288,1.422-0.181l-0.081,0.059c2.01-0.058,2.872,0.177,5.13,0.333L11.667,34.6
						c0.485,0.037,0.587,0.123,0.814,0.191c0.557-0.416-1.363-0.023-0.855-0.482c0.644,0.559,3.422,0.008,3.857,0.644
						c0.747,0.003-0.219-0.318,0.527-0.314l0.198,0.172l0.189-0.222c0.489,0.037,0.736,0.252,0.754,0.397
						c-0.119-0.018-0.337,0.041-0.465,0.053c0.635,0.203,1.79-0.068,2.008-0.003l-0.717-0.105c2.038-0.161,4.525,0.064,6.494-0.285
						l-0.149-0.13c1.503-0.239,1.204,0.143,2.854,0.032l-0.06,0.03c0.33-0.129,0.771-0.194,1.223-0.18
						c-0.417,0.152,0.784,0.296,0.237,0.463c1.63-0.257,0.806-0.202,1.883-0.684l0.249,0.215c0.367-0.194,0.397-0.297,1.222-0.353
						c-0.676,0.185,0.526,0.327-0.231,0.571c1.73,0.471,2.568-0.475,3.362,0.213c0.794-0.595-1.497-0.33-1.052-0.457
						c-0.373-0.195,0.656-0.445,1.198-0.386c0.553,0.014,0.939,0.762,2.33,0.75c-0.138-0.003-0.148,0.043-0.286,0.04
						c0.52,0.151,1.019-0.206,1.657,0.041c0.357-0.36,0.829,0.021,0.932-0.438l-1.275,0.106c0.723-0.12,1.401-0.657,2.591-0.396
						c-0.093,0.092-0.447,0.214-0.69,0.282c0.348,0.135,0.67-0.09,1.032,0.049c-0.103,0.46-1.55,0.1-2.324,0.45
						c0.374,0.194,1.465-0.333,1.076,0.165c0.559-0.633,1.369,0.08,2.311-0.403l-0.062,0.275c0.149-0.043,0.458-0.174,0.731-0.166
						l-0.496,0.356c0.762-0.305,1.469,0.267,2.2,0.101c-1.53,0.009-0.343-0.332-0.99-0.532c1.887-0.368,1.085,0.72,3.199,0.588
						c-0.286,0.039-1.074-0.165-0.627-0.293c0.402,0.057,0.934,0.162,1.181,0.307c1.4-0.057-0.215-0.283,0.381-0.452
						c0.477,0.335,0.688-0.137,1.301-0.244l0.004,0.28c1.596,0.18,0.423-0.583,1.859-0.366l-0.607,0.388l0.749-0.101l-0.155,0.318
						c0.815-0.235,1.069-0.175,1.867-0.085c-0.186-0.197,0.104-0.508,0.811-0.517c0.482,0.166-0.27,0.266,0.732,0.226
						c-0.226,0.175-0.474,0.395-0.91,0.137c-0.045,0.092-0.223,0.176-0.269,0.266c0.519,0.191,1.304,0.044,1.667,0.041
						c-0.14-0.01-0.307-0.025-0.392-0.065l1.452-0.388c0.229,0.105,0.047,0.189-0.132,0.272c0.294-0.03,0.498-0.159,0.93-0.183
						c-0.112,0.228-0.085,0.462-0.697,0.569l1.383-0.253c0.092,0.1,0.71,0.271,0.53,0.355c0.767,0.134,1.882-0.441,2.899-0.265
						c0.053-0.044,0.159-0.086,0.375-0.119c0.956,0.052,1.802,0.331,2.935,0.019l0.643,0.408c0.887-0.093-0.87-0.514,0.607-0.667
						c1.046-0.131,0.391,0.348,0.757,0.461c0.52-0.206,1.424-0.624,2.385-0.292C68.484,35.083,68.234,35.022,67.937,35.053z
						 M78.879,34.872c-0.212,0.059-0.635,0.239-0.79,0.074C78.331,34.626,78.518,34.779,78.879,34.872z M95.513,34.198
						c-0.158,0.093-0.402,0.047-0.677-0.06C95.035,34.116,95.262,34.127,95.513,34.198z M141.848,32.25l-0.022,0.014
						C141.352,32.154,141.52,32.197,141.848,32.25z M142.829,32.371c0.1-0.039,0.093-0.077,0.051-0.116
						c-0.068,0.07-0.289,0.075-0.54,0.056C142.409,32.384,142.536,32.434,142.829,32.371z M37.365,32.481l0.191,0.073
						C37.125,32.636,37.246,32.563,37.365,32.481z"/>
					<path fill="#FFFFFF" d="M93.626,34.581c-0.06-0.047-0.076-0.1-0.09-0.152C93.452,34.476,93.45,34.53,93.626,34.581z"/>
					<path fill="#FFFFFF" d="M61.132,35.199l-0.033-0.003c-0.019,0.017-0.028,0.034-0.034,0.051L61.132,35.199z"/>
					<path fill="#FFFFFF" d="M127.617,34.744c-0.202-0.04-0.315-0.092-0.391-0.145C127.216,34.668,127.308,34.726,127.617,34.744z"
						/>
					<path fill="#FFFFFF" d="M148.034,31.896l-0.63,0.073c0.305-0.014,0.413,0.047,0.566,0.092
						C147.957,31.995,147.837,31.9,148.034,31.896z"/>
					<path fill="#FFFFFF" d="M153.494,33.628c0.092-0.035,0.194-0.004,0.285-0.039l-0.025-0.13
						C153.362,33.468,153.089,33.572,153.494,33.628z"/>
					<path fill="#FFFFFF" d="M148.616,32.826c0.05,0.235,0.444,0.155,0.885,0.111c-0.026,0.001-0.052,0.003-0.078,0
						C149.553,32.608,149.083,32.717,148.616,32.826z"/>
					<path fill="#FFFFFF" d="M149.604,32.93c0.136-0.011,0.274-0.018,0.407-0.006C150.063,32.792,149.846,32.896,149.604,32.93z"/>
					<path fill="#FFFFFF" d="M144.075,32.216c0.209,0.061,0.131-0.301,0.249-0.205C144.558,31.711,142.932,32.373,144.075,32.216z"
						/>
					<polygon fill="#FFFFFF" points="148.973,33.602 148.814,33.311 148.568,33.545 					"/>
					<path fill="#FFFFFF" d="M145.493,33.388l0.704,0.081c-0.011-0.049,0.079-0.078,0.188-0.1
						C145.952,33.359,145.477,33.302,145.493,33.388z"/>
					<path fill="#FFFFFF" d="M146.386,33.369c0.227,0.006,0.441-0.001,0.567-0.048C146.831,33.324,146.567,33.334,146.386,33.369z"
						/>
					<polygon fill="#FFFFFF" points="148.011,33.688 147.802,33.628 147.305,33.606 					"/>
					<path fill="#FFFFFF" d="M137.925,33.332l-0.769,0.083c-0.078,0.1,0.131,0.16,0.417,0.121
						C137.757,33.467,138.042,33.428,137.925,33.332z"/>
					<path fill="#FFFFFF" d="M140.248,34.128c-0.207-0.061-0.222-0.126-0.339-0.222l-0.023,0.36L140.248,34.128z"/>
					<path fill="#FFFFFF" d="M138.008,34.212c-0.077,0.1-1.115,0.287-0.142,0.264C137.944,34.377,138.714,34.294,138.008,34.212z"/>
					<polygon fill="#FFFFFF" points="126.429,33.756 126.624,33.752 126.596,33.161 					"/>
					<path fill="#FFFFFF" d="M116.224,35.169c0.91,0.142,0.216-0.364,1.039-0.188c0.214-0.14-0.673-0.145-0.454-0.265
						C116.26,34.864,115.971,34.78,116.224,35.169z"/>
					<path fill="#FFFFFF" d="M116.809,34.717c0.089-0.023,0.182-0.052,0.281-0.09C116.931,34.664,116.855,34.692,116.809,34.717z"/>
					<polygon fill="#FFFFFF" points="1.614,32.182 1.028,32.059 1.406,32.258 					"/>
					<path fill="#FFFFFF" d="M0.49,32.62l-0.138-0.376L0,32.584C0.132,32.567,0.389,32.535,0.49,32.62z"/>
					<path fill="#FFFFFF" d="M80.506,35.63l0.044-0.09c-0.091-0.099-0.228-0.105-0.502-0.121L80.506,35.63z"/>
					<polygon fill="#FFFFFF" points="72.564,35.349 72.701,35.356 72.445,35.016 					"/>
					<path fill="#FFFFFF" d="M65.899,35.782c0.272,0.015,0.592-0.062,0.865-0.047C66.171,35.797,65.825,35.358,65.899,35.782z"/>
				</g>
			</g>
		</g>
	</g>
</g>
</svg>
