<?xml version="1.0" encoding="utf-8"?>
<!-- Generator: Adobe Illustrator 19.0.0, SVG Export Plug-In . SVG Version: 6.00 Build 0)  -->
<!DOCTYPE svg PUBLIC "-//W3C//DTD SVG 1.1//EN" "http://www.w3.org/Graphics/SVG/1.1/DTD/svg11.dtd">
<svg version="1.1" id="Layer_1" xmlns="http://www.w3.org/2000/svg" xmlns:xlink="http://www.w3.org/1999/xlink" x="0px" y="0px"
	 viewBox="-34.1 344.4 175.6 93.7" style="enable-background:new -34.1 344.4 175.6 93.7;" xml:space="preserve">
<style type="text/css">
	.st0{fill:none;}
	.st1{fill:#DD6B58;}
	.st2{fill:#01899C;}
	.st3{fill:#ECBB9B;}
</style>
<g>
	<path class="st0" d="M-28,412c0.1-0.3,0.3-0.5,0.4-0.7c-2.5,0.3-4.5,2.7-4.1,6c0.5,3.8,3.5,6.6,8.7,6c-0.2-1.7-0.2-3.6-0.1-5.4
		C-25.6,417.5-29,413.9-28,412z"/>
	<path class="st0" d="M-13.9,403.2L-13.9,403.2L-13.9,403.2z"/>
	<path class="st0" d="M-20.4,422.6c5.3-1.7,8.3-6.4,9.4-10.8c-3.7,1.1-6.7,2.6-9.2,4.4C-20.4,418.3-20.5,420.5-20.4,422.6z"/>
	<path class="st0" d="M-13.8,432c2.9-1.1,4.1-4.6,3.8-7c-0.2-1.4-0.8-2.4-2-2.2c-2,0.2-2.9,3.3-2.5,6.4
		C-14.4,430.1-14.2,431.1-13.8,432z"/>
	<path class="st1" d="M-13.2,433.3c4-1.3,5.6-5.1,5.3-8.1c-0.3-2.3-1.7-4.1-4-3.8c-3.4,0.4-4.9,4.7-4.4,8.8c0.1,0.7,0.2,1.4,0.4,2
		c-2.5-0.4-3.8-3.8-4.3-8.1c7-1.9,11-7.8,12-13c0.3-1.5,0.4-2.9,0.2-4.1c-0.2-2.1-1.1-3.7-2.5-4.6c-0.8-0.5-1.9-0.8-3.1-0.6
		c-2,0.2-3.7,1.3-5,2.9c1.4-0.5,3-1,4.7-1.4h0.1c0.1,0,0.3-0.1,0.4-0.1c1.6-0.2,2.6,1.3,2.9,3.6c0.2,1.5,0,3.2-0.4,5.1
		c-1.1,4.4-4.1,9.1-9.4,10.8c-0.1-2.1,0-4.6,0.2-6.7c-0.5,0.4-1,0.8-1.5,1.2c-0.4,0.3-0.9,0.4-1.5,0.4c-0.1,1.9-0.1,4,0.1,5.7
		c-5.2,0.6-8.2-2.1-8.7-6c-0.4-3.3,1.6-5.6,4.1-6c0.5-0.9,1.1-1.7,1.8-2.4c-0.6-0.1-1.3-0.1-1.9,0c-3.7,0.4-6.9,3.7-6.3,8.5
		c0.5,4.5,4.6,8.1,11.2,7.3c0.9,5.2,3.3,9.2,7.4,9.1c1,2.3,2.8,4,5.4,4.3l0.5-2C-11.1,435.7-12.4,434.7-13.2,433.3z M-14.5,429.2
		c-0.4-3.1,0.5-6.2,2.5-6.4c1.1-0.1,1.8,0.9,2,2.2c0.3,2.4-0.9,5.9-3.8,7C-14.2,431.1-14.4,430.1-14.5,429.2z"/>
	<path class="st2" d="M-14,403.2c-1.7,0.5-3.3,0.9-4.7,1.4c-3.1,1.1-5.4,2.4-7.1,4.2c-0.7,0.7-1.2,1.5-1.8,2.4
		c-0.1,0.2-0.3,0.5-0.4,0.7c-1,1.9,2.4,5.5,4.9,5.7c0.6,0.1,1.1-0.1,1.5-0.4c0.5-0.4,1-0.8,1.5-1.2c2.5-1.8,5.6-3.3,9.3-4.4
		c0.4-1.6,0.6-3.4,0.4-4.9c-0.3-2.3-1.4-3.8-3-3.6"/>
</g>
<g>
	<path class="st2" d="M139,393c-2.2-5.2-9.6-7.9-19.9-7.1c-12.3,1-29.4-1-43.4-7s-14.2-14.7-25-13.9c-8.7,0.6-9.5,5.7-14.3,12.3
		c-5.7,7.8-19,18-36,22.3c-4.1,1.1-7.9,2-11,2.8c1.4,0.9,2.3,2.4,2.6,4.5c0.2,1.3,0.1,2.8-0.2,4.2c3.6-0.9,7.9-1.5,13-2
		c8.3-0.8,17.4-6.6,23.1-9.3c6.7-3.2,15.4-7.4,24.3-8.8c10.2-1.6,15.3,0.3,23.2,0.8c11.2,0.6,18.1,5,30.2,4.6
		c12.4-0.4,18.2-4.4,27.8,2C136.8,400.7,139.6,394.4,139,393z M51.9,383.9c-2.5,0-4.5-2-4.5-4.5s2-4.5,4.5-4.5s4.5,2,4.5,4.5
		S54.4,383.9,51.9,383.9z"/>
</g>
<path class="st3" d="M40,354.8c0.2-1.3,1,0.3,1.3-2.9c0.2-2.4,1.8-6.9,6.9-7.4c5.1-0.5,8.1,1.8,9.6,7c1.5,5.2-0.7,8.2-3.2,10.3
	c-1.5,1.2-3.4,1.3-3.4,1.3l0.1,2.4c0,0,0.1,0.9-0.8,0.9s-0.8-0.8-0.8-0.8s-0.3-3.5,0-3.9c0.5-0.6,2.8,0.5,5.1-2.2
	c2.3-2.7,2.6-5.3,1.5-8.3c-0.9-2.5-2.8-5.3-6-5.4c-3.9-0.2-6.3,1-7.3,3.8c-0.9,2.6-0.4,5.8-1.8,6C40.1,356,39.9,355.1,40,354.8z"/>
<g>
	<path class="st1" d="M-1,418.4c0.1,0,0.7,0.1,0.7,0.3l0,0c-1.1,4.6-2.1,6.9-3.9,7.1c-1.7,0.2-2.5-1.4-2.9-4.3c-0.2-2-0.2-4.7,0-8
		c0.4-7.1,1.8-10.5,3.4-10.7c1.4-0.2,2,0.9,2.2,2.4c0.2,1.6-0.1,3.7-0.3,4.6c-0.7,3.8-2.2,6.7-3.2,8.2c0,1.2,0,2.3,0.2,3.2
		c0.2,1.9,0.7,2.4,1.3,2.3C-2.7,423.5-1.8,421.6-1,418.4z M-3.2,404.7c-0.8,0.1-1.7,6.3-1.9,11.6c1.1-2.7,2.6-7.6,2.2-11
		C-2.9,404.9-3,404.7-3.2,404.7z"/>
	<path class="st1" d="M9,417.6c-0.4,1.7-1.6,3.1-2.8,3.7c-0.7,2.1-2,3.5-3.8,3.7c-1.9,0.2-3-1.7-3.3-4.2c-0.2-1.6-0.1-3.3,0.3-5.1
		l1,0.1c0-2.2,1-4.2,3-4.4c1.9-0.2,3.1,1.8,3.4,4.3c0.2,1.4,0,2.8-0.2,4.1c0.7-0.4,1.3-1.2,1.6-2.6C8.3,417.3,9,417.4,9,417.6z
		 M3.6,421.6c-1.2-0.3-2.1-1.3-2.7-2.6c0,0.4,0,0.8,0.1,1.2c0.2,1.6,0.8,2.7,1.5,2.6c0.1,0,0.1,0,0.2-0.1
		C3.1,422.6,3.4,422.2,3.6,421.6z M2,417.3c0.2,1.5,0.8,2.9,2.1,3.1c0.4-1.5,0.6-3.5,0.4-5c-0.1-1.3-0.6-2.2-1.3-2.1
		c-0.1,0-0.1,0-0.2,0.1C2.2,413.6,1.8,415.5,2,417.3z"/>
	<path class="st1" d="M9.5,421c0.4,0.6,0.8,0.8,1.3,0.7c0.7-0.1,1-0.6,0.9-1.6c-0.2-1.7-1.2-3.3-2.1-5.2c-0.2,1-0.5,1.9-0.7,2.7
		c0,0-0.8,0-0.8-0.3l0,0c0.2-1,0.6-2.3,1-3.7c-0.3-0.8-0.5-1.7-0.7-2.6c-0.1-1.1-0.1-2.4,0.2-3.8l1.9,0.1c0,1.5-0.2,2.9-0.3,4.2
		c0.4,2.3,3.4,4.9,3.8,8v0.1c0.4-0.9,0.7-2,1-3.1c0.2,0,0.8,0.1,0.8,0.3c-0.9,3.5-2.1,6.9-5.1,7.2c-1.3,0.2-2.5-0.5-3-1.6L9.5,421z"
		/>
	<path class="st1" d="M23.1,415.5c0.2,0,0.8,0.1,0.8,0.3c-1,3.8-2,6.9-4.7,7.2c-2.4,0.3-3.7-1.8-4-4.4c-0.5-3.8,1.1-8.6,4.2-9
		c1.4-0.2,2.2,0.8,2.4,2c0.2,2-1.1,4.8-4.3,5.8c0,0.1,0,0.3,0,0.4c0.2,1.7,0.8,2.9,2.1,2.8C21.3,420.4,22.4,418.5,23.1,415.5z
		 M17.4,416.3c2-1.3,2.7-3.3,2.5-4.3c0-0.4-0.2-0.7-0.5-0.6C18.3,411.4,17.5,413.9,17.4,416.3z"/>
	<path class="st1" d="M26,402.4c0.1,2.3,0.1,4.4-0.1,6.7c0.4-0.1,0.8-0.1,1.1-0.2l-0.1,1.3c-0.1,0-0.6,0.1-1.1,0.2
		c-0.1,1.1-0.3,2.2-0.5,3.4c0,2,0,3.4,0.1,4.4c0.1,1.2,0.4,1.8,0.8,1.7c0.8-0.1,1.5-2.8,2.1-5.1c0.2,0,0.8,0.2,0.8,0.3
		c-1.1,4.6-1.7,6.7-3.5,6.9c-1.2,0.1-1.9-1.3-2.2-3.7c-0.2-2-0.3-4.8,0-7.7c-0.6,0.1-1.1,0.1-1.2,0.1v-1.3c0.2,0,0.7-0.1,1.3-0.1
		c0.1-2,0.3-3.9,0.6-6.8L26,402.4z"/>
	<path class="st1" d="M51.2,415.3c-0.4-0.5-0.6-1.1-0.7-1.7c-0.3-2.3,1.6-4.7,5.3-5.3c0-5.4,0.5-8.9,1.3-11l-0.6,0.1
		c-4.1,0.5-8.5-0.7-14.2,0c-5.3,0.6-7.5,5.2-7.1,9.1c0.4,3.2,2.6,6,6.4,5.5c3.8-0.5,4.9-3.4,4.5-6.6c-0.1-0.5-0.1-1-0.3-1.5l2.4-0.7
		c0.1,0.5,0.2,1.1,0.3,1.7c0.5,4.1-1,7.9-6.8,8.6c-5.6,0.7-8.8-2.8-9.3-7c-0.6-4.7,2.5-10.3,9.6-11.1c6-0.7,11.1,1,14.5,0.5
		c0.5-0.1,0.9-0.1,1.2-0.2c0.8-1.4,1.7-1.9,2.3-2.1l1.1,1.1c-0.4,0.8-0.9,1.5-2,2c-0.4,1.7-0.8,4.9-0.7,11.2
		c0.7-0.2,1.4-0.5,1.9-0.8c0.4-1.7,0.9-2.7,0.9-2.7l1.6,0.6c0,1-0.4,2.1-1.3,2.9c0,1.3,0.1,3.4,0.4,5.7l-2,0.2
		c-0.2-1.8-0.1-3.5,0.1-4.9c-0.5,0.2-1,0.4-1.5,0.6c-0.1,12.5-4.7,15.9-8.9,16.4c-4.5,0.5-6.7-1.8-7-4.4c-0.3-2.4,1.1-5,3.8-5.3
		l0.4,2.5c-1.2,0.1-1.9,1.5-1.7,2.8c0.2,1.6,1.5,3.3,4.5,2.9c2.9-0.3,6.1-2.5,6.2-14.4c-1.8,0.5-3.2,1.4-3,3.1
		c0,0.4,0.2,0.8,0.4,1.3L51.2,415.3z"/>
	<path class="st1" d="M69.3,403.9l2-0.2c-0.4,3.8-0.6,6.9-0.6,9.7c0,0.3,0,0.5,0,0.7c0.1,0.4,0.2,0.6,0.3,0.6c0.3,0,1.3-1.5,2.2-5.1
		c0.2,0,0.8,0.1,0.8,0.3c-1.2,4.7-2.3,6.8-3.6,6.9c-0.9,0.1-1.5-0.6-1.7-2.6c0-0.1,0-0.2,0-0.3c-0.4,1.8-1.2,3.4-2.8,3.6
		c-1.4,0.2-2.1-1.3-2.3-3.3c-0.5-3.9,1-10,3.6-10.3c1-0.1,1.7,0.4,2,1.6L69.3,403.9z M65.8,413.6c0.1,0.9,0.3,1.4,0.8,1.4
		c1.3-0.2,2.3-4.9,2-7.5c-0.1-1-0.5-1.7-1.1-1.6C66.3,406,65.5,411,65.8,413.6z"/>
	<path class="st1" d="M74.5,413.2c0.4,0.6,0.8,0.8,1.3,0.7c0.7-0.1,1-0.6,0.9-1.6c-0.2-1.7-1.2-3.3-2.1-5.2c-0.2,1-0.5,1.9-0.7,2.7
		c0,0-0.8,0-0.8-0.3l0,0c0.2-1,0.6-2.3,1-3.7c-0.3-0.8-0.5-1.7-0.7-2.6c-0.1-1.1-0.1-2.4,0.2-3.8l1.9,0.1c0,1.5-0.2,2.9-0.3,4.2
		c0.4,2.3,3.4,4.9,3.8,8v0.1c0.4-0.9,0.7-2,1-3.1c0.2,0,0.8,0.1,0.8,0.3c-0.9,3.5-2.1,6.9-5.1,7.2c-1.3,0.2-2.5-0.5-3-1.6
		L74.5,413.2z"/>
	<path class="st1" d="M79.9,415.5c-0.1-0.2-0.1-0.5-0.1-0.7c-0.3-2.2,0.3-4.6,0.3-4.6c0.3-6,0.7-12.9,1.5-15.6
		c0.4-1.3,1.3-1.9,2.1-2c1.4-0.2,2,0.5,2.1,1.5c0.3,2.3-1.7,6.3-3.1,8.7c0,0.5-0.1,1-0.1,1.6c0.8-1.5,1.8-2.5,3-2.6
		c1-0.1,1.7,0.4,1.8,1.8c0.3,2.6-1.1,6.1-0.8,8.4c0.1,0.8,0.4,0.9,0.7,0.9c0.7-0.1,1.5-1.8,2.3-5.1c0.2,0,0.8,0.1,0.8,0.3
		c-0.8,3.3-1.7,6.7-4,7c-1,0.1-2-0.6-2.2-2.2c-0.4-3,1.1-6.3,0.8-8.3c0-0.3-0.2-0.5-0.5-0.5c-1.2,0.1-2.4,3-2.4,11.4L79.9,415.5z
		 M84.1,394.3c-0.4,0.1-0.7,1.3-1.1,6c0.6-1.6,1.6-4.2,1.4-5.6C84.4,394.4,84.3,394.3,84.1,394.3z"/>
	<path class="st1" d="M92.6,401.1c-0.5,4.5-0.9,7.8-0.6,10.1c0.1,0.8,0.4,0.9,0.7,0.9c0.7-0.1,1.5-1.8,2.3-5.1
		c0.1,0,0.8,0.1,0.8,0.3l0,0c-0.8,3.3-1.4,6.7-3.7,6.9c-1.5,0.2-2.2-1.2-2.4-3.1c-0.4-3.1,0.3-7.7,0.6-9.7L92.6,401.1z M90.2,398.3
		c-0.1-1,0.5-2.3,1.7-2.4c0.9-0.1,1.4,0.5,1.5,1.3c0.1,1-0.5,2.3-1.7,2.4C90.8,399.7,90.3,399,90.2,398.3z"/>
	<path class="st1" d="M104.9,406.1c-0.4,1.7-1.6,3.1-2.8,3.7c-0.7,2.1-2,3.5-3.8,3.7c-1.9,0.2-3-1.7-3.3-4.2
		c-0.2-1.6-0.1-3.3,0.3-5.1l1,0.1c0-2.2,1-4.2,3-4.4c1.9-0.2,3.1,1.8,3.4,4.3c0.2,1.4,0,2.8-0.2,4.1c0.7-0.4,1.3-1.2,1.6-2.6
		C104.3,405.8,104.9,406,104.9,406.1z M99.6,410.2c-1.2-0.3-2.1-1.3-2.7-2.6c0,0.4,0,0.8,0.1,1.2c0.2,1.6,0.8,2.7,1.5,2.6
		c0.1,0,0.1,0,0.2-0.1C99,411.2,99.3,410.7,99.6,410.2z M97.9,405.8c0.2,1.5,0.8,2.9,2.1,3.1c0.4-1.5,0.6-3.5,0.4-5
		c-0.1-1.3-0.6-2.2-1.3-2.1c-0.1,0-0.1,0-0.2,0.1C98.1,402.1,97.7,404,97.9,405.8z"/>
	<path class="st1" d="M103.5,412.6c0,0-0.1-2.6,0.5-4.7c0.2-3.2,0.3-6.1,0.4-8.2l2.4-0.3l-0.1,1.9c0.7-1.4,1.7-2.4,2.9-2.5
		c1-0.1,1.7,0.4,1.8,1.8c0.3,2.6-1.1,6.1-0.8,8.4c0.1,0.8,0.4,0.9,0.7,0.9c0.7-0.1,1.5-1.8,2.3-5.1c0.2,0,0.8,0.1,0.8,0.3
		c-0.8,3.3-1.7,6.7-4,7c-1,0.1-2-0.6-2.2-2.2c-0.4-3,1.1-6.3,0.8-8.3c0-0.3-0.2-0.5-0.5-0.5c-0.7,0.1-1.8,1.5-2.2,5.6l-0.4,5.9
		L103.5,412.6z"/>
	<path class="st1" d="M116.6,398.2c-0.5,4.5-0.9,7.8-0.6,10.1c0.1,0.8,0.4,0.9,0.7,0.9c0.7-0.1,1.5-1.8,2.3-5.1
		c0.1,0,0.8,0.1,0.8,0.3l0,0c-0.8,3.3-1.4,6.7-3.7,6.9c-1.5,0.2-2.2-1.2-2.4-3.1c-0.4-3.1,0.3-7.7,0.6-9.7L116.6,398.2z
		 M114.2,395.4c-0.1-1,0.5-2.3,1.7-2.4c0.9-0.1,1.4,0.5,1.5,1.3c0.1,1-0.5,2.3-1.7,2.4C114.8,396.8,114.3,396.2,114.2,395.4z"/>
	<path class="st1" d="M120.3,407.8c0.4,0.6,0.8,0.8,1.3,0.7c0.7-0.1,1-0.6,0.9-1.6c-0.2-1.7-1.2-3.3-2.1-5.2c-0.2,1-0.5,1.9-0.7,2.7
		c0,0-0.8,0-0.8-0.3l0,0c0.2-1,0.6-2.3,1-3.7c-0.3-0.8-0.5-1.7-0.7-2.6c-0.1-1.1-0.1-2.4,0.2-3.8l1.9,0.1c0,1.5-0.2,2.9-0.3,4.2
		c0.4,2.3,3.4,4.9,3.8,8v0.1c0.4-0.9,0.7-2,1-3.1c0.2,0,0.8,0.1,0.8,0.3c-0.9,3.5-2.1,6.9-5.1,7.2c-1.3,0.2-2.5-0.5-3-1.6
		L120.3,407.8z"/>
	<path class="st1" d="M124.9,385.8c6-3.3,3.9,8.7,3.7,11c0.4-0.1,0.8-0.1,1.1-0.2l-0.1,1.3c-0.1,0-0.6,0.1-1.1,0.2
		c-0.1,1.1-0.3,2.2-0.5,3.4c0,2,0,3.4,0.1,4.4c0.1,1.2,0.4,1.8,0.8,1.7c0.8-0.1,1.5-2.8,2.1-5.1c0.2,0,0.8,0.2,0.8,0.3
		c-1.1,4.6-1.7,6.7-3.5,6.9c-1.2,0.1-1.9-1.3-2.2-3.7c-0.2-2-0.3-4.8,0-7.7c-0.6,0.1-1.1,0.1-1.2,0.1v-1.3c0.2,0,0.7-0.1,1.3-0.1
		c0.8-3.7,0.5-11.5-0.5-11.2H124.9z"/>
	<path class="st1" d="M136.8,395.8l2-0.2c-0.4,3.8-0.6,6.9-0.6,9.7c0,0.3,0,0.5,0,0.7c0,0.4,0.2,0.6,0.3,0.6c0.3,0,1.3-1.5,2.2-5.1
		c0.2,0,0.8,0.1,0.8,0.3c-1.2,4.7-2.3,6.8-3.6,6.9c-0.9,0.1-1.5-0.6-1.7-2.6c0-0.1,0-0.2,0-0.3c-0.4,1.8-1.2,3.4-2.8,3.6
		c-1.4,0.2-2.1-1.3-2.3-3.3c-0.5-3.9,1-10,3.6-10.3c1-0.1,1.7,0.4,2,1.6L136.8,395.8z M133.3,405.5c0.1,0.9,0.3,1.4,0.8,1.4
		c1.3-0.2,2.3-4.9,2-7.5c-0.1-1-0.5-1.7-1.1-1.6C133.9,397.9,133,403,133.3,405.5z"/>
</g>
</svg>
