<?xml version="1.0" encoding="utf-8"?>
<!-- Generator: Adobe Illustrator 19.0.0, SVG Export Plug-In . SVG Version: 6.00 Build 0)  -->
<!DOCTYPE svg PUBLIC "-//W3C//DTD SVG 1.1//EN" "http://www.w3.org/Graphics/SVG/1.1/DTD/svg11.dtd">
<svg version="1.1" id="Layer_1" xmlns="http://www.w3.org/2000/svg" xmlns:xlink="http://www.w3.org/1999/xlink" x="0px" y="0px"
	 viewBox="0 0 360 360" style="enable-background:new 0 0 360 360;" xml:space="preserve">
<style type="text/css">
	.st0{fill:none;}
	.st1{fill:#DD6B58;}
	.st2{fill:#01899C;}
	.st3{fill:#ECBB9B;}
</style>
<g>
	<path class="st0" d="M97,195c0.1-0.3,0.3-0.5,0.4-0.7c-2.5,0.3-4.5,2.7-4.1,6c0.5,3.8,3.5,6.6,8.7,6c-0.2-1.7-0.2-3.6-0.1-5.4
		C99.4,200.5,96,196.9,97,195z"/>
	<path class="st0" d="M111.1,186.2L111.1,186.2L111.1,186.2z"/>
	<path class="st0" d="M104.6,205.6c5.3-1.7,8.3-6.4,9.4-10.8c-3.7,1.1-6.7,2.6-9.2,4.4C104.6,201.3,104.5,203.5,104.6,205.6z"/>
	<path class="st0" d="M111.2,215c2.9-1.1,4.1-4.6,3.8-7c-0.2-1.4-0.8-2.4-2-2.2c-2,0.2-2.9,3.3-2.5,6.4
		C110.6,213.1,110.8,214.1,111.2,215z"/>
	<path class="st1" d="M111.8,216.3c4-1.3,5.6-5.1,5.3-8.1c-0.3-2.3-1.7-4.1-4-3.8c-3.4,0.4-4.9,4.7-4.4,8.8c0.1,0.7,0.2,1.4,0.4,2
		c-2.5-0.4-3.8-3.8-4.3-8.1c7-1.9,11-7.8,12-13c0.3-1.5,0.4-2.9,0.2-4.1c-0.2-2.1-1.1-3.7-2.5-4.6c-0.8-0.5-1.9-0.8-3.1-0.6
		c-2,0.2-3.7,1.3-5,2.9c1.4-0.5,3-1,4.7-1.4h0.1c0.1,0,0.3-0.1,0.4-0.1c1.6-0.2,2.6,1.3,2.9,3.6c0.2,1.5,0,3.2-0.4,5.1
		c-1.1,4.4-4.1,9.1-9.4,10.8c-0.1-2.1,0-4.6,0.2-6.7c-0.5,0.4-1,0.8-1.5,1.2c-0.4,0.3-0.9,0.4-1.5,0.4c-0.1,1.9-0.1,4,0.1,5.7
		c-5.2,0.6-8.2-2.1-8.7-6c-0.4-3.3,1.6-5.6,4.1-6c0.5-0.9,1.1-1.7,1.8-2.4c-0.6-0.1-1.3-0.1-1.9,0c-3.7,0.4-6.9,3.7-6.3,8.5
		c0.5,4.5,4.6,8.1,11.2,7.3c0.9,5.2,3.3,9.2,7.4,9.1c1,2.3,2.8,4,5.4,4.3l0.5-2C113.9,218.7,112.6,217.7,111.8,216.3z M110.5,212.2
		c-0.4-3.1,0.5-6.2,2.5-6.4c1.1-0.1,1.8,0.9,2,2.2c0.3,2.4-0.9,5.9-3.8,7C110.8,214.1,110.6,213.1,110.5,212.2z"/>
	<path class="st2" d="M111,186.2c-1.7,0.5-3.3,0.9-4.7,1.4c-3.1,1.1-5.4,2.4-7.1,4.2c-0.7,0.7-1.2,1.5-1.8,2.4
		c-0.1,0.2-0.3,0.5-0.4,0.7c-1,1.9,2.4,5.5,4.9,5.7c0.6,0.1,1.1-0.1,1.5-0.4c0.5-0.4,1-0.8,1.5-1.2c2.5-1.8,5.6-3.3,9.3-4.4
		c0.4-1.6,0.6-3.4,0.4-4.9c-0.3-2.3-1.4-3.8-3-3.6"/>
</g>
<g>
	<path class="st2" d="M264,176c-2.2-5.2-9.6-7.9-19.9-7.1c-12.3,1-29.4-1-43.4-7s-14.2-14.7-25-13.9c-8.7,0.6-9.5,5.7-14.3,12.3
		c-5.7,7.8-19,18-36,22.3c-4.1,1.1-7.9,2-11,2.8c1.4,0.9,2.3,2.4,2.6,4.5c0.2,1.3,0.1,2.8-0.2,4.2c3.6-0.9,7.9-1.5,13-2
		c8.3-0.8,17.4-6.6,23.1-9.3c6.7-3.2,15.4-7.4,24.3-8.8c10.2-1.6,15.3,0.3,23.2,0.8c11.2,0.6,18.1,5,30.2,4.6
		c12.4-0.4,18.2-4.4,27.8,2C261.8,183.7,264.6,177.4,264,176z M176.9,166.9c-2.5,0-4.5-2-4.5-4.5c0-2.5,2-4.5,4.5-4.5
		c2.5,0,4.5,2,4.5,4.5C181.4,164.9,179.4,166.9,176.9,166.9z"/>
</g>
<path class="st3" d="M165,137.8c0.2-1.3,1,0.3,1.3-2.9c0.2-2.4,1.8-6.9,6.9-7.4c5.1-0.5,8.1,1.8,9.6,7s-0.7,8.2-3.2,10.3
	c-1.5,1.2-3.4,1.3-3.4,1.3l0.1,2.4c0,0,0.1,0.9-0.8,0.9s-0.8-0.8-0.8-0.8s-0.3-3.5,0-3.9c0.5-0.6,2.8,0.5,5.1-2.2s2.6-5.3,1.5-8.3
	c-0.9-2.5-2.8-5.3-6-5.4c-3.9-0.2-6.3,1-7.3,3.8c-0.9,2.6-0.4,5.8-1.8,6C165.1,139,164.9,138.1,165,137.8z"/>
<g>
	<path class="st1" d="M124,201.4c0.1,0,0.7,0.1,0.7,0.3l0,0c-1.1,4.6-2.1,6.9-3.9,7.1c-1.7,0.2-2.5-1.4-2.9-4.3c-0.2-2-0.2-4.7,0-8
		c0.4-7.1,1.8-10.5,3.4-10.7c1.4-0.2,2,0.9,2.2,2.4c0.2,1.6-0.1,3.7-0.3,4.6c-0.7,3.8-2.2,6.7-3.2,8.2c0,1.2,0,2.3,0.2,3.2
		c0.2,1.9,0.7,2.4,1.3,2.3C122.3,206.5,123.2,204.6,124,201.4z M121.8,187.7c-0.8,0.1-1.7,6.3-1.9,11.6c1.1-2.7,2.6-7.6,2.2-11
		C122.1,187.9,122,187.7,121.8,187.7z"/>
	<path class="st1" d="M134,200.6c-0.4,1.7-1.6,3.1-2.8,3.7c-0.7,2.1-2,3.5-3.8,3.7c-1.9,0.2-3-1.7-3.3-4.2c-0.2-1.6-0.1-3.3,0.3-5.1
		l1,0.1c0-2.2,1-4.2,3-4.4c1.9-0.2,3.1,1.8,3.4,4.3c0.2,1.4,0,2.8-0.2,4.1c0.7-0.4,1.3-1.2,1.6-2.6C133.3,200.3,134,200.4,134,200.6
		z M128.6,204.6c-1.2-0.3-2.1-1.3-2.7-2.6c0,0.4,0,0.8,0.1,1.2c0.2,1.6,0.8,2.7,1.5,2.6c0.1,0,0.1,0,0.2-0.1
		C128.1,205.6,128.4,205.2,128.6,204.6z M127,200.3c0.2,1.5,0.8,2.9,2.1,3.1c0.4-1.5,0.6-3.5,0.4-5c-0.1-1.3-0.6-2.2-1.3-2.1
		c-0.1,0-0.1,0-0.2,0.1C127.2,196.6,126.8,198.5,127,200.3z"/>
	<path class="st1" d="M134.5,204c0.4,0.6,0.8,0.8,1.3,0.7c0.7-0.1,1-0.6,0.9-1.6c-0.2-1.7-1.2-3.3-2.1-5.2c-0.2,1-0.5,1.9-0.7,2.7
		c0,0-0.8,0-0.8-0.3l0,0c0.2-1,0.6-2.3,1-3.7c-0.3-0.8-0.5-1.7-0.7-2.6c-0.1-1.1-0.1-2.4,0.2-3.8l1.9,0.1c0,1.5-0.2,2.9-0.3,4.2
		c0.4,2.3,3.4,4.9,3.8,8v0.1c0.4-0.9,0.7-2,1-3.1c0.2,0,0.8,0.1,0.8,0.3c-0.9,3.5-2.1,6.9-5.1,7.2c-1.3,0.2-2.5-0.5-3-1.6L134.5,204
		z"/>
	<path class="st1" d="M148.1,198.5c0.2,0,0.8,0.1,0.8,0.3c-1,3.8-2,6.9-4.7,7.2c-2.4,0.3-3.7-1.8-4-4.4c-0.5-3.8,1.1-8.6,4.2-9
		c1.4-0.2,2.2,0.8,2.4,2c0.2,2-1.1,4.8-4.3,5.8c0,0.1,0,0.3,0,0.4c0.2,1.7,0.8,2.9,2.1,2.8C146.3,203.4,147.4,201.5,148.1,198.5z
		 M142.4,199.3c2-1.3,2.7-3.3,2.5-4.3c0-0.4-0.2-0.7-0.5-0.6C143.3,194.4,142.5,196.9,142.4,199.3z"/>
	<path class="st1" d="M151,185.4c0.1,2.3,0.1,4.4-0.1,6.7c0.4-0.1,0.8-0.1,1.1-0.2l-0.1,1.3c-0.1,0-0.6,0.1-1.1,0.2
		c-0.1,1.1-0.3,2.2-0.5,3.4c0,2,0,3.4,0.1,4.4c0.1,1.2,0.4,1.8,0.8,1.7c0.8-0.1,1.5-2.8,2.1-5.1c0.2,0,0.8,0.2,0.8,0.3
		c-1.1,4.6-1.7,6.7-3.5,6.9c-1.2,0.1-1.9-1.3-2.2-3.7c-0.2-2-0.3-4.8,0-7.7c-0.6,0.1-1.1,0.1-1.2,0.1v-1.3c0.2,0,0.7-0.1,1.3-0.1
		c0.1-2,0.3-3.9,0.6-6.8L151,185.4z"/>
	<path class="st1" d="M176.2,198.3c-0.4-0.5-0.6-1.1-0.7-1.7c-0.3-2.3,1.6-4.7,5.3-5.3c0-5.4,0.5-8.9,1.3-11l-0.6,0.1
		c-4.1,0.5-8.5-0.7-14.2,0c-5.3,0.6-7.5,5.2-7.1,9.1c0.4,3.2,2.6,6,6.4,5.5c3.8-0.5,4.9-3.4,4.5-6.6c-0.1-0.5-0.1-1-0.3-1.5l2.4-0.7
		c0.1,0.5,0.2,1.1,0.3,1.7c0.5,4.1-1,7.9-6.8,8.6c-5.6,0.7-8.8-2.8-9.3-7c-0.6-4.7,2.5-10.3,9.6-11.1c6-0.7,11.1,1,14.5,0.5
		c0.5-0.1,0.9-0.1,1.2-0.2c0.8-1.4,1.7-1.9,2.3-2.1l1.1,1.1c-0.4,0.8-0.9,1.5-2,2c-0.4,1.7-0.8,4.9-0.7,11.2
		c0.7-0.2,1.4-0.5,1.9-0.8c0.4-1.7,0.9-2.7,0.9-2.7l1.6,0.6c0,1-0.4,2.1-1.3,2.9c0,1.3,0.1,3.4,0.4,5.7l-2,0.2
		c-0.2-1.8-0.1-3.5,0.1-4.9c-0.5,0.2-1,0.4-1.5,0.6c-0.1,12.5-4.7,15.9-8.9,16.4c-4.5,0.5-6.7-1.8-7-4.4c-0.3-2.4,1.1-5,3.8-5.3
		l0.4,2.5c-1.2,0.1-1.9,1.5-1.7,2.8c0.2,1.6,1.5,3.3,4.5,2.9c2.9-0.3,6.1-2.5,6.2-14.4c-1.8,0.5-3.2,1.4-3,3.1
		c0,0.4,0.2,0.8,0.4,1.3L176.2,198.3z"/>
	<path class="st1" d="M194.3,186.9l2-0.2c-0.4,3.8-0.6,6.9-0.6,9.7c0,0.3,0,0.5,0,0.7c0.1,0.4,0.2,0.6,0.3,0.6
		c0.3,0,1.3-1.5,2.2-5.1c0.2,0,0.8,0.1,0.8,0.3c-1.2,4.7-2.3,6.8-3.6,6.9c-0.9,0.1-1.5-0.6-1.7-2.6c0-0.1,0-0.2,0-0.3
		c-0.4,1.8-1.2,3.4-2.8,3.6c-1.4,0.2-2.1-1.3-2.3-3.3c-0.5-3.9,1-10,3.6-10.3c1-0.1,1.7,0.4,2,1.6L194.3,186.9z M190.8,196.6
		c0.1,0.9,0.3,1.4,0.8,1.4c1.3-0.2,2.3-4.9,2-7.5c-0.1-1-0.5-1.7-1.1-1.6C191.3,189,190.5,194,190.8,196.6z"/>
	<path class="st1" d="M199.5,196.2c0.4,0.6,0.8,0.8,1.3,0.7c0.7-0.1,1-0.6,0.9-1.6c-0.2-1.7-1.2-3.3-2.1-5.2c-0.2,1-0.5,1.9-0.7,2.7
		c0,0-0.8,0-0.8-0.3l0,0c0.2-1,0.6-2.3,1-3.7c-0.3-0.8-0.5-1.7-0.7-2.6c-0.1-1.1-0.1-2.4,0.2-3.8l1.9,0.1c0,1.5-0.2,2.9-0.3,4.2
		c0.4,2.3,3.4,4.9,3.8,8v0.1c0.4-0.9,0.7-2,1-3.1c0.2,0,0.8,0.1,0.8,0.3c-0.9,3.5-2.1,6.9-5.1,7.2c-1.3,0.2-2.5-0.5-3-1.6
		L199.5,196.2z"/>
	<path class="st1" d="M204.9,198.5c-0.1-0.2-0.1-0.5-0.1-0.7c-0.3-2.2,0.3-4.6,0.3-4.6c0.3-6,0.7-12.9,1.5-15.6
		c0.4-1.3,1.3-1.9,2.1-2c1.4-0.2,2,0.5,2.1,1.5c0.3,2.3-1.7,6.3-3.1,8.7c0,0.5-0.1,1-0.1,1.6c0.8-1.5,1.8-2.5,3-2.6
		c1-0.1,1.7,0.4,1.8,1.8c0.3,2.6-1.1,6.1-0.8,8.4c0.1,0.8,0.4,0.9,0.7,0.9c0.7-0.1,1.5-1.8,2.3-5.1c0.2,0,0.8,0.1,0.8,0.3
		c-0.8,3.3-1.7,6.7-4,7c-1,0.1-2-0.6-2.2-2.2c-0.4-3,1.1-6.3,0.8-8.3c0-0.3-0.2-0.5-0.5-0.5c-1.2,0.1-2.4,3-2.4,11.4L204.9,198.5z
		 M209.1,177.3c-0.4,0.1-0.7,1.3-1.1,6c0.6-1.6,1.6-4.2,1.4-5.6C209.4,177.4,209.3,177.3,209.1,177.3z"/>
	<path class="st1" d="M217.6,184.1c-0.5,4.5-0.9,7.8-0.6,10.1c0.1,0.8,0.4,0.9,0.7,0.9c0.7-0.1,1.5-1.8,2.3-5.1
		c0.1,0,0.8,0.1,0.8,0.3l0,0c-0.8,3.3-1.4,6.7-3.7,6.9c-1.5,0.2-2.2-1.2-2.4-3.1c-0.4-3.1,0.3-7.7,0.6-9.7L217.6,184.1z
		 M215.2,181.3c-0.1-1,0.5-2.3,1.7-2.4c0.9-0.1,1.4,0.5,1.5,1.3c0.1,1-0.5,2.3-1.7,2.4C215.8,182.7,215.3,182,215.2,181.3z"/>
	<path class="st1" d="M229.9,189.1c-0.4,1.7-1.6,3.1-2.8,3.7c-0.7,2.1-2,3.5-3.8,3.7c-1.9,0.2-3-1.7-3.3-4.2
		c-0.2-1.6-0.1-3.3,0.3-5.1l1,0.1c0-2.2,1-4.2,3-4.4c1.9-0.2,3.1,1.8,3.4,4.3c0.2,1.4,0,2.8-0.2,4.1c0.7-0.4,1.3-1.2,1.6-2.6
		C229.3,188.8,229.9,189,229.9,189.1z M224.6,193.2c-1.2-0.3-2.1-1.3-2.7-2.6c0,0.4,0,0.8,0.1,1.2c0.2,1.6,0.8,2.7,1.5,2.6
		c0.1,0,0.1,0,0.2-0.1C224,194.2,224.3,193.7,224.6,193.2z M222.9,188.8c0.2,1.5,0.8,2.9,2.1,3.1c0.4-1.5,0.6-3.5,0.4-5
		c-0.1-1.3-0.6-2.2-1.3-2.1c-0.1,0-0.1,0-0.2,0.1C223.1,185.1,222.7,187,222.9,188.8z"/>
	<path class="st1" d="M228.5,195.6c0,0-0.1-2.6,0.5-4.7c0.2-3.2,0.3-6.1,0.4-8.2l2.4-0.3l-0.1,1.9c0.7-1.4,1.7-2.4,2.9-2.5
		c1-0.1,1.7,0.4,1.8,1.8c0.3,2.6-1.1,6.1-0.8,8.4c0.1,0.8,0.4,0.9,0.7,0.9c0.7-0.1,1.5-1.8,2.3-5.1c0.2,0,0.8,0.1,0.8,0.3
		c-0.8,3.3-1.7,6.7-4,7c-1,0.1-2-0.6-2.2-2.2c-0.4-3,1.1-6.3,0.8-8.3c0-0.3-0.2-0.5-0.5-0.5c-0.7,0.1-1.8,1.5-2.2,5.6l-0.4,5.9
		L228.5,195.6z"/>
	<path class="st1" d="M241.6,181.2c-0.5,4.5-0.9,7.8-0.6,10.1c0.1,0.8,0.4,0.9,0.7,0.9c0.7-0.1,1.5-1.8,2.3-5.1
		c0.1,0,0.8,0.1,0.8,0.3l0,0c-0.8,3.3-1.4,6.7-3.7,6.9c-1.5,0.2-2.2-1.2-2.4-3.1c-0.4-3.1,0.3-7.7,0.6-9.7L241.6,181.2z
		 M239.2,178.4c-0.1-1,0.5-2.3,1.7-2.4c0.9-0.1,1.4,0.5,1.5,1.3c0.1,1-0.5,2.3-1.7,2.4C239.8,179.8,239.3,179.2,239.2,178.4z"/>
	<path class="st1" d="M245.3,190.8c0.4,0.6,0.8,0.8,1.3,0.7c0.7-0.1,1-0.6,0.9-1.6c-0.2-1.7-1.2-3.3-2.1-5.2c-0.2,1-0.5,1.9-0.7,2.7
		c0,0-0.8,0-0.8-0.3l0,0c0.2-1,0.6-2.3,1-3.7c-0.3-0.8-0.5-1.7-0.7-2.6c-0.1-1.1-0.1-2.4,0.2-3.8l1.9,0.1c0,1.5-0.2,2.9-0.3,4.2
		c0.4,2.3,3.4,4.9,3.8,8v0.1c0.4-0.9,0.7-2,1-3.1c0.2,0,0.8,0.1,0.8,0.3c-0.9,3.5-2.1,6.9-5.1,7.2c-1.3,0.2-2.5-0.5-3-1.6
		L245.3,190.8z"/>
	<path class="st1" d="M249.9,168.8c6-3.3,3.9,8.7,3.7,11c0.4-0.1,0.8-0.1,1.1-0.2l-0.1,1.3c-0.1,0-0.6,0.1-1.1,0.2
		c-0.1,1.1-0.3,2.2-0.5,3.4c0,2,0,3.4,0.1,4.4c0.1,1.2,0.4,1.8,0.8,1.7c0.8-0.1,1.5-2.8,2.1-5.1c0.2,0,0.8,0.2,0.8,0.3
		c-1.1,4.6-1.7,6.7-3.5,6.9c-1.2,0.1-1.9-1.3-2.2-3.7c-0.2-2-0.3-4.8,0-7.7c-0.6,0.1-1.1,0.1-1.2,0.1v-1.3c0.2,0,0.7-0.1,1.3-0.1
		c0.8-3.7,0.5-11.5-0.5-11.2L249.9,168.8z"/>
	<path class="st1" d="M261.8,178.8l2-0.2c-0.4,3.8-0.6,6.9-0.6,9.7c0,0.3,0,0.5,0,0.7c0,0.4,0.2,0.6,0.3,0.6c0.3,0,1.3-1.5,2.2-5.1
		c0.2,0,0.8,0.1,0.8,0.3c-1.2,4.7-2.3,6.8-3.6,6.9c-0.9,0.1-1.5-0.6-1.7-2.6c0-0.1,0-0.2,0-0.3c-0.4,1.8-1.2,3.4-2.8,3.6
		c-1.4,0.2-2.1-1.3-2.3-3.3c-0.5-3.9,1-10,3.6-10.3c1-0.1,1.7,0.4,2,1.6L261.8,178.8z M258.3,188.5c0.1,0.9,0.3,1.4,0.8,1.4
		c1.3-0.2,2.3-4.9,2-7.5c-0.1-1-0.5-1.7-1.1-1.6C258.9,180.9,258,186,258.3,188.5z"/>
</g>
</svg>
